<?xml version="1.0" encoding="UTF-8" standalone="no"?>
<!DOCTYPE svg PUBLIC "-//W3C//DTD SVG 1.0//EN"
 "http://www.w3.org/TR/2001/REC-SVG-20010904/DTD/svg10.dtd" [
 <!ATTLIST svg xmlns:xlink CDATA #FIXED "http://www.w3.org/1999/xlink">
]>
<!-- Generated by Graphviz version 2.20.2 (Mon Mar 30 10:11:53 UTC 2009)
     For user: (jvelde)  -->
<!-- Title: G Pages: 1 -->
<svg width="820pt" height="970pt"
 viewBox="0.00 0.00 820.00 970.00" xmlns="http://www.w3.org/2000/svg" xmlns:xlink="http://www.w3.org/1999/xlink">
<g id="graph0" class="graph" transform="scale(1 1) rotate(0) translate(4 966)">
<title>G</title>
<polygon style="fill:white;stroke:white;" points="-4,4 -4,-966 816,-966 816,4 -4,4"/>
<g id="cluster2" class="cluster"><title>cluster_legend</title>
<polygon style="fill:none;stroke:white;" points="8,-16 8,-86 244,-86 244,-16 8,-16"/>
<text text-anchor="middle" x="126" y="-22.8" style="font-family:Bitstream Vera Sans;font-size:8.00;">module legend</text>
</g>
<g id="cluster3" class="cluster"><title>cluster_main</title>
<polygon style="fill:white;stroke:black;" points="12,-98 12,-954 804,-954 804,-98 12,-98"/>
</g>
<!-- spook_legend&#45;&gt;spook_main -->
<!-- Identifiable&#45;&gt;Describable -->
<g id="edge4" class="edge"><title>Identifiable&#45;&gt;Describable</title>
<path style="fill:none;stroke:black;" d="M411,-874C411,-882 411,-891 411,-900"/>
<polygon style="fill:none;stroke:black;" points="407.5,-900 411,-910 414.5,-900 407.5,-900"/>
</g>
<!-- Security&#45;&gt;Identifiable -->
<g id="edge6" class="edge"><title>Security&#45;&gt;Identifiable</title>
<path style="fill:none;stroke:black;" d="M270,-675C297,-711 358,-789 391,-830"/>
<polygon style="fill:none;stroke:black;" points="388.2,-832.1 397,-838 393.8,-827.9 388.2,-832.1"/>
</g>
<!-- Security&#45;&gt;Contact -->
<g id="edge66" class="edge"><title>Security&#45;&gt;Contact</title>
<path style="fill:none;stroke:black;" d="M270,-680C278,-692 287,-707 295,-721"/>
<polygon style="fill:black;stroke:black;" points="267,-675 272.402,-678.756 268.544,-677.572 270.087,-680.145 270.087,-680.145 270.087,-680.145 268.544,-677.572 267.772,-681.534 267,-675 267,-675"/>
<polygon style="fill:black;stroke:black;" points="298,-726 292.598,-722.244 296.456,-723.428 294.913,-720.855 294.913,-720.855 294.913,-720.855 296.456,-723.428 297.228,-719.466 298,-726 298,-726"/>
<text text-anchor="middle" x="268" y="-682.8" style="font-family:Bitstream Vera Sans;font-size:8.00;">*</text>
</g>
<!-- OntologyTerm&#45;&gt;Identifiable -->
<g id="edge8" class="edge"><title>OntologyTerm&#45;&gt;Identifiable</title>
<path style="fill:none;stroke:black;" d="M413,-685C412,-723 411,-790 411,-828"/>
<polygon style="fill:none;stroke:black;" points="407.5,-828 411,-838 414.5,-828 407.5,-828"/>
</g>
<!-- OntologyTerm&#45;&gt;OntologySource -->
<g id="edge44" class="edge"><title>OntologyTerm&#45;&gt;OntologySource</title>
<path style="fill:none;stroke:black;" d="M430,-685C440,-701 453,-721 463,-737"/>
<polygon style="fill:black;stroke:black;" points="468,-746 459.21,-739.444 465.572,-741.629 463.144,-737.258 463.144,-737.258 463.144,-737.258 465.572,-741.629 467.077,-735.073 468,-746 468,-746"/>
<text text-anchor="middle" x="431" y="-692.8" style="font-family:Bitstream Vera Sans;font-size:8.00;">*</text>
</g>
<!-- URI&#45;&gt;Describable -->
<g id="edge10" class="edge"><title>URI&#45;&gt;Describable</title>
<path style="fill:none;stroke:black;" d="M714,-865C648,-879 517,-906 451,-920"/>
<polygon style="fill:none;stroke:black;" points="450.119,-916.607 441,-922 451.492,-923.471 450.119,-916.607"/>
</g>
<!-- OntologySource&#45;&gt;Identifiable -->
<g id="edge12" class="edge"><title>OntologySource&#45;&gt;Identifiable</title>
<path style="fill:none;stroke:black;" d="M466,-782C456,-795 442,-814 431,-830"/>
<polygon style="fill:none;stroke:black;" points="428.2,-827.9 425,-838 433.8,-832.1 428.2,-827.9"/>
</g>
<!-- Contact&#45;&gt;Identifiable -->
<g id="edge14" class="edge"><title>Contact&#45;&gt;Identifiable</title>
<path style="fill:none;stroke:black;" d="M359,-802C368,-811 378,-822 387,-831"/>
<polygon style="fill:none;stroke:black;" points="384.454,-833.404 394,-838 389.404,-828.454 384.454,-833.404"/>
</g>
<!-- Description&#45;&gt;Describable -->
<g id="edge46" class="edge"><title>Description&#45;&gt;Describable</title>
<path style="fill:none;stroke:black;" d="M121,-292C161,-393 342,-793 396,-901"/>
<polygon style="fill:black;stroke:black;" points="400,-910 391.826,-902.69 397.969,-905.431 395.939,-900.862 395.939,-900.862 395.939,-900.862 397.969,-905.431 400.051,-899.034 400,-910 400,-910"/>
<text text-anchor="middle" x="121" y="-299.8" style="font-family:Bitstream Vera Sans;font-size:8.00;">*</text>
</g>
<!-- Description&#45;&gt;Describable -->
<g id="edge16" class="edge"><title>Description&#45;&gt;Describable</title>
<path style="fill:none;stroke:black;" d="M126,-292C176,-393 358,-792 401,-901"/>
<polygon style="fill:none;stroke:black;" points="397.74,-902.283 405,-910 404.137,-899.44 397.74,-902.283"/>
</g>
<!-- DatabaseReference&#45;&gt;Identifiable -->
<g id="edge50" class="edge"><title>DatabaseReference&#45;&gt;Identifiable</title>
<path style="fill:none;stroke:black;" d="M628,-690C576,-731 490,-796 443,-832"/>
<polygon style="fill:black;stroke:black;" points="435,-838 440.3,-828.4 439,-835 443,-832 443,-832 443,-832 439,-835 445.7,-835.6 435,-838 435,-838"/>
<text text-anchor="middle" x="618" y="-689.8" style="font-family:Bitstream Vera Sans;font-size:8.00;">*</text>
</g>
<!-- DatabaseReference&#45;&gt;Describable -->
<g id="edge18" class="edge"><title>DatabaseReference&#45;&gt;Describable</title>
<path style="fill:none;stroke:black;" d="M639,-690C587,-745 483,-853 436,-903"/>
<polygon style="fill:none;stroke:black;" points="433.596,-900.454 429,-910 438.546,-905.404 433.596,-900.454"/>
</g>
<!-- DatabaseReference&#45;&gt;Database -->
<g id="edge48" class="edge"><title>DatabaseReference&#45;&gt;Database</title>
<path style="fill:none;stroke:black;" d="M586,-673C469,-695 262,-736 168,-754"/>
<polygon style="fill:black;stroke:black;" points="158,-756 166.923,-749.626 162.903,-755.019 167.806,-754.039 167.806,-754.039 167.806,-754.039 162.903,-755.019 168.688,-758.451 158,-756 158,-756"/>
<text text-anchor="middle" x="576" y="-668.8" style="font-family:Bitstream Vera Sans;font-size:8.00;">*</text>
</g>
<!-- Database&#45;&gt;Identifiable -->
<g id="edge20" class="edge"><title>Database&#45;&gt;Identifiable</title>
<path style="fill:none;stroke:black;" d="M158,-776C212,-793 309,-823 366,-842"/>
<polygon style="fill:none;stroke:black;" points="365.416,-845.479 376,-845 367.427,-838.774 365.416,-845.479"/>
</g>
<!-- FugeProtocolApplication&#45;&gt;Description -->
<g id="edge54" class="edge"><title>FugeProtocolApplication&#45;&gt;Description</title>
<path style="fill:none;stroke:black;" d="M246,-198C219,-212 190,-228 165,-241"/>
<polygon style="fill:black;stroke:black;" points="156,-246 162.556,-237.21 160.371,-243.572 164.742,-241.144 164.742,-241.144 164.742,-241.144 160.371,-243.572 166.927,-245.077 156,-246 156,-246"/>
<text text-anchor="middle" x="236" y="-195.8" style="font-family:Bitstream Vera Sans;font-size:8.00;">*</text>
</g>
<!-- FugeProtocolApplication&#45;&gt;ParameterizableApplication -->
<g id="edge22" class="edge"><title>FugeProtocolApplication&#45;&gt;ParameterizableApplication</title>
<path style="fill:none;stroke:black;" d="M389,-200C452,-242 547,-304 598,-337"/>
<polygon style="fill:none;stroke:black;" points="596.738,-340.365 607,-343 600.621,-334.541 596.738,-340.365"/>
</g>
<!-- FugeProtocolApplication&#45;&gt;Protocol -->
<g id="edge52" class="edge"><title>FugeProtocolApplication&#45;&gt;Protocol</title>
<path style="fill:none;stroke:black;" d="M356,-200C363,-209 370,-219 377,-228"/>
<polygon style="fill:black;stroke:black;" points="383,-236 373.4,-230.7 380,-232 377,-228 377,-228 377,-228 380,-232 380.6,-225.3 383,-236 383,-236"/>
<text text-anchor="middle" x="358" y="-207.8" style="font-family:Bitstream Vera Sans;font-size:8.00;">*</text>
</g>
<!-- FugeProtocolApplication&#45;&gt;Material -->
<g id="edge70" class="edge"><title>FugeProtocolApplication&#45;&gt;Material</title>
<path style="fill:none;stroke:black;" d="M313,-206C296,-287 265,-443 249,-516"/>
<polygon style="fill:black;stroke:black;" points="314,-200 315.677,-206.362 313.507,-202.959 313.014,-205.918 313.014,-205.918 313.014,-205.918 313.507,-202.959 310.35,-205.474 314,-200 314,-200"/>
<polygon style="fill:black;stroke:black;" points="248,-522 246.323,-515.638 248.493,-519.041 248.986,-516.082 248.986,-516.082 248.986,-516.082 248.493,-519.041 251.65,-516.526 248,-522 248,-522"/>
<text text-anchor="middle" x="308" y="-205.8" style="font-family:Bitstream Vera Sans;font-size:8.00;">*</text>
</g>
<!-- FugeProtocolApplication&#45;&gt;Data -->
<g id="edge68" class="edge"><title>FugeProtocolApplication&#45;&gt;Data</title>
<path style="fill:none;stroke:black;" d="M294,-206C287,-220 280,-233 276,-245"/>
<polygon style="fill:black;stroke:black;" points="296,-200 296.664,-206.546 295.051,-202.846 294.103,-205.692 294.103,-205.692 294.103,-205.692 295.051,-202.846 291.541,-204.838 296,-200 296,-200"/>
<polygon style="fill:black;stroke:black;" points="274,-251 273.336,-244.454 274.949,-248.154 275.897,-245.308 275.897,-245.308 275.897,-245.308 274.949,-248.154 278.459,-246.162 274,-251 274,-251"/>
<text text-anchor="middle" x="289" y="-204.8" style="font-family:Bitstream Vera Sans;font-size:8.00;">*</text>
</g>
<!-- FugeProtocolApplication&#45;&gt;Data -->
<g id="edge72" class="edge"><title>FugeProtocolApplication&#45;&gt;Data</title>
<path style="fill:none;stroke:black;" d="M307,-206C301,-220 293,-234 287,-246"/>
<polygon style="fill:black;stroke:black;" points="309,-200 309.664,-206.546 308.051,-202.846 307.103,-205.692 307.103,-205.692 307.103,-205.692 308.051,-202.846 304.541,-204.838 309,-200 309,-200"/>
<polygon style="fill:black;stroke:black;" points="284,-251 284.772,-244.466 285.544,-248.428 287.087,-245.855 287.087,-245.855 287.087,-245.855 285.544,-248.428 289.402,-247.244 284,-251 284,-251"/>
<text text-anchor="middle" x="302" y="-204.8" style="font-family:Bitstream Vera Sans;font-size:8.00;">*</text>
</g>
<!-- ParameterizableApplication&#45;&gt;Identifiable -->
<g id="edge24" class="edge"><title>ParameterizableApplication&#45;&gt;Identifiable</title>
<path style="fill:none;stroke:black;" d="M627,-379C592,-454 464,-738 423,-829"/>
<polygon style="fill:none;stroke:black;" points="419.863,-827.44 419,-838 426.26,-830.283 419.863,-827.44"/>
</g>
<!-- Protocol&#45;&gt;OntologyTerm -->
<g id="edge74" class="edge"><title>Protocol&#45;&gt;OntologyTerm</title>
<path style="fill:none;stroke:black;" d="M405,-308C403,-385 405,-551 409,-623"/>
<polygon style="fill:black;stroke:black;" points="405,-302 407.7,-308 405,-305 405,-308 405,-308 405,-308 405,-305 402.3,-308 405,-302 405,-302"/>
<polygon style="fill:black;stroke:black;" points="409,-629 406.3,-623 409,-626 409,-623 409,-623 409,-623 409,-626 411.7,-623 409,-629 409,-629"/>
<text text-anchor="middle" x="401" y="-308.8" style="font-family:Bitstream Vera Sans;font-size:8.00;">*</text>
</g>
<!-- Protocol&#45;&gt;OntologyTerm -->
<g id="edge76" class="edge"><title>Protocol&#45;&gt;OntologyTerm</title>
<path style="fill:none;stroke:black;" d="M413,-308C418,-385 419,-551 416,-623"/>
<polygon style="fill:black;stroke:black;" points="413,-302 415.7,-308 413,-305 413,-308 413,-308 413,-308 413,-305 410.3,-308 413,-302 413,-302"/>
<polygon style="fill:black;stroke:black;" points="416,-629 413.3,-623 416,-626 416,-623 416,-623 416,-623 416,-626 418.7,-623 416,-629 416,-629"/>
<text text-anchor="middle" x="409" y="-308.8" style="font-family:Bitstream Vera Sans;font-size:8.00;">*</text>
</g>
<!-- Protocol&#45;&gt;Parameterizable -->
<g id="edge26" class="edge"><title>Protocol&#45;&gt;Parameterizable</title>
<path style="fill:none;stroke:black;" d="M419,-302C437,-358 473,-474 490,-527"/>
<polygon style="fill:none;stroke:black;" points="486.774,-528.427 493,-537 493.479,-526.416 486.774,-528.427"/>
</g>
<!-- Protocol&#45;&gt;Software -->
<g id="edge78" class="edge"><title>Protocol&#45;&gt;Software</title>
<path style="fill:none;stroke:black;" d="M430,-307C434,-316 439,-325 443,-333"/>
<polygon style="fill:black;stroke:black;" points="427,-302 432.402,-305.756 428.544,-304.572 430.087,-307.145 430.087,-307.145 430.087,-307.145 428.544,-304.572 427.772,-308.534 427,-302 427,-302"/>
<polygon style="fill:black;stroke:black;" points="446,-338 440.598,-334.244 444.456,-335.428 442.913,-332.855 442.913,-332.855 442.913,-332.855 444.456,-335.428 445.228,-331.466 446,-338 446,-338"/>
<text text-anchor="middle" x="428" y="-309.8" style="font-family:Bitstream Vera Sans;font-size:8.00;">*</text>
</g>
<!-- Protocol&#45;&gt;Equipment -->
<g id="edge80" class="edge"><title>Protocol&#45;&gt;Equipment</title>
<path style="fill:none;stroke:black;" d="M414,-308C417,-339 421,-382 424,-414"/>
<polygon style="fill:black;stroke:black;" points="413,-302 416.65,-307.474 413.493,-304.959 413.986,-307.918 413.986,-307.918 413.986,-307.918 413.493,-304.959 411.323,-308.362 413,-302 413,-302"/>
<polygon style="fill:black;stroke:black;" points="425,-420 421.35,-414.526 424.507,-417.041 424.014,-414.082 424.014,-414.082 424.014,-414.082 424.507,-417.041 426.677,-413.638 425,-420 425,-420"/>
<text text-anchor="middle" x="410" y="-309.8" style="font-family:Bitstream Vera Sans;font-size:8.00;">*</text>
</g>
<!-- Parameterizable&#45;&gt;Identifiable -->
<g id="edge28" class="edge"><title>Parameterizable&#45;&gt;Identifiable</title>
<path style="fill:none;stroke:black;" d="M494,-573C479,-624 437,-767 419,-828"/>
<polygon style="fill:none;stroke:black;" points="415.521,-827.416 416,-838 422.226,-829.427 415.521,-827.416"/>
</g>
<!-- Parameterizable&#45;&gt;OntologyTerm -->
<g id="edge82" class="edge"><title>Parameterizable&#45;&gt;OntologyTerm</title>
<path style="fill:none;stroke:black;" d="M480,-578C468,-592 454,-609 441,-624"/>
<polygon style="fill:black;stroke:black;" points="484,-573 482.36,-579.372 482.126,-575.343 480.252,-577.685 480.252,-577.685 480.252,-577.685 482.126,-575.343 478.143,-575.999 484,-573 484,-573"/>
<polygon style="fill:black;stroke:black;" points="437,-629 438.64,-622.628 438.874,-626.657 440.748,-624.315 440.748,-624.315 440.748,-624.315 438.874,-626.657 442.857,-626.001 437,-629 437,-629"/>
<text text-anchor="middle" x="475" y="-574.8" style="font-family:Bitstream Vera Sans;font-size:8.00;">*</text>
</g>
<!-- Software&#45;&gt;Parameterizable -->
<g id="edge30" class="edge"><title>Software&#45;&gt;Parameterizable</title>
<path style="fill:none;stroke:black;" d="M463,-384C470,-420 485,-488 493,-527"/>
<polygon style="fill:none;stroke:black;" points="489.607,-527.881 495,-537 496.471,-526.508 489.607,-527.881"/>
</g>
<!-- Software&#45;&gt;Equipment -->
<g id="edge84" class="edge"><title>Software&#45;&gt;Equipment</title>
<path style="fill:none;stroke:black;" d="M443,-390C440,-397 437,-406 434,-414"/>
<polygon style="fill:black;stroke:black;" points="445,-384 445.664,-390.546 444.051,-386.846 443.103,-389.692 443.103,-389.692 443.103,-389.692 444.051,-386.846 440.541,-388.838 445,-384 445,-384"/>
<polygon style="fill:black;stroke:black;" points="433,-420 431.323,-413.638 433.493,-417.041 433.986,-414.082 433.986,-414.082 433.986,-414.082 433.493,-417.041 436.65,-414.526 433,-420 433,-420"/>
<text text-anchor="middle" x="438" y="-388.8" style="font-family:Bitstream Vera Sans;font-size:8.00;">*</text>
</g>
<!-- Equipment&#45;&gt;OntologyTerm -->
<g id="edge56" class="edge"><title>Equipment&#45;&gt;OntologyTerm</title>
<path style="fill:none;stroke:black;" d="M421,-486C416,-523 412,-580 410,-619"/>
<polygon style="fill:black;stroke:black;" points="410,-629 405.5,-619 410,-624 410,-619 410,-619 410,-619 410,-624 414.5,-619 410,-629 410,-629"/>
<text text-anchor="middle" x="416" y="-491.8" style="font-family:Bitstream Vera Sans;font-size:8.00;">*</text>
</g>
<!-- Equipment&#45;&gt;OntologyTerm -->
<g id="edge58" class="edge"><title>Equipment&#45;&gt;OntologyTerm</title>
<path style="fill:none;stroke:black;" d="M432,-486C431,-523 426,-580 421,-619"/>
<polygon style="fill:black;stroke:black;" points="420,-629 416.517,-618.602 420.498,-624.025 420.995,-619.05 420.995,-619.05 420.995,-619.05 420.498,-624.025 425.473,-619.497 420,-629 420,-629"/>
<text text-anchor="middle" x="427" y="-492.8" style="font-family:Bitstream Vera Sans;font-size:8.00;">*</text>
</g>
<!-- Equipment&#45;&gt;Parameterizable -->
<g id="edge32" class="edge"><title>Equipment&#45;&gt;Parameterizable</title>
<path style="fill:none;stroke:black;" d="M452,-486C461,-500 472,-516 481,-529"/>
<polygon style="fill:none;stroke:black;" points="478.2,-531.1 487,-537 483.8,-526.9 478.2,-531.1"/>
</g>
<!-- Equipment&#45;&gt;Software -->
<g id="edge88" class="edge"><title>Equipment&#45;&gt;Software</title>
<path style="fill:none;stroke:black;" d="M448,-414C451,-406 453,-397 455,-390"/>
<polygon style="fill:black;stroke:black;" points="446,-420 445.336,-413.454 446.949,-417.154 447.897,-414.308 447.897,-414.308 447.897,-414.308 446.949,-417.154 450.459,-415.162 446,-420 446,-420"/>
<polygon style="fill:black;stroke:black;" points="457,-384 457.664,-390.546 456.051,-386.846 455.103,-389.692 455.103,-389.692 455.103,-389.692 456.051,-386.846 452.541,-388.838 457,-384 457,-384"/>
<text text-anchor="middle" x="453" y="-410.8" style="font-family:Bitstream Vera Sans;font-size:8.00;">*</text>
</g>
<!-- Equipment&#45;&gt;Equipment -->
<g id="edge86" class="edge"><title>Equipment&#45;&gt;Equipment</title>
<path style="fill:none;stroke:black;" d="M508,-439C515,-442 520,-446 520,-453 520,-459 515,-464 508,-467"/>
<polygon style="fill:black;stroke:black;" points="502,-437 508.546,-436.336 504.846,-437.949 507.692,-438.897 507.692,-438.897 507.692,-438.897 504.846,-437.949 506.838,-441.459 502,-437 502,-437"/>
<polygon style="fill:black;stroke:black;" points="502,-469 506.838,-464.541 504.846,-468.051 507.692,-467.103 507.692,-467.103 507.692,-467.103 504.846,-468.051 508.546,-469.664 502,-469 502,-469"/>
<text text-anchor="middle" x="509" y="-441.8" style="font-family:Bitstream Vera Sans;font-size:8.00;">*</text>
</g>
<!-- FugeInvestigation&#45;&gt;Identifiable -->
<g id="edge34" class="edge"><title>FugeInvestigation&#45;&gt;Identifiable</title>
<path style="fill:none;stroke:black;" d="M255,-783C287,-799 333,-820 367,-836"/>
<polygon style="fill:none;stroke:black;" points="365.44,-839.137 376,-840 368.283,-832.74 365.44,-839.137"/>
</g>
<!-- Material&#45;&gt;Identifiable -->
<g id="edge36" class="edge"><title>Material&#45;&gt;Identifiable</title>
<path style="fill:none;stroke:black;" d="M260,-588C294,-648 365,-774 396,-829"/>
<polygon style="fill:none;stroke:black;" points="393.084,-830.958 401,-838 399.203,-827.559 393.084,-830.958"/>
</g>
<!-- Material&#45;&gt;OntologyTerm -->
<g id="edge60" class="edge"><title>Material&#45;&gt;OntologyTerm</title>
<path style="fill:none;stroke:black;" d="M284,-588C302,-599 324,-612 344,-624"/>
<polygon style="fill:black;stroke:black;" points="353,-629 342.073,-628.077 348.629,-626.572 344.258,-624.144 344.258,-624.144 344.258,-624.144 348.629,-626.572 346.444,-620.21 353,-629 353,-629"/>
<text text-anchor="middle" x="290" y="-593.8" style="font-family:Bitstream Vera Sans;font-size:8.00;">*</text>
</g>
<!-- Material&#45;&gt;OntologyTerm -->
<g id="edge92" class="edge"><title>Material&#45;&gt;OntologyTerm</title>
<path style="fill:none;stroke:black;" d="M302,-591C321,-602 342,-615 361,-626"/>
<polygon style="fill:black;stroke:black;" points="297,-588 303.534,-588.772 299.572,-589.544 302.145,-591.087 302.145,-591.087 302.145,-591.087 299.572,-589.544 300.756,-593.402 297,-588 297,-588"/>
<polygon style="fill:black;stroke:black;" points="366,-629 359.466,-628.228 363.428,-627.456 360.855,-625.913 360.855,-625.913 360.855,-625.913 363.428,-627.456 362.244,-623.598 366,-629 366,-629"/>
<text text-anchor="middle" x="303" y="-593.8" style="font-family:Bitstream Vera Sans;font-size:8.00;">*</text>
</g>
<!-- Material&#45;&gt;OntologyTerm -->
<g id="edge94" class="edge"><title>Material&#45;&gt;OntologyTerm</title>
<path style="fill:none;stroke:black;" d="M315,-591C335,-602 356,-614 373,-626"/>
<polygon style="fill:black;stroke:black;" points="310,-588 316.534,-588.772 312.572,-589.544 315.145,-591.087 315.145,-591.087 315.145,-591.087 312.572,-589.544 313.756,-593.402 310,-588 310,-588"/>
<polygon style="fill:black;stroke:black;" points="378,-629 371.466,-628.228 375.428,-627.456 372.855,-625.913 372.855,-625.913 372.855,-625.913 375.428,-627.456 374.244,-623.598 378,-629 378,-629"/>
<text text-anchor="middle" x="316" y="-593.8" style="font-family:Bitstream Vera Sans;font-size:8.00;">*</text>
</g>
<!-- Material&#45;&gt;Material -->
<g id="edge90" class="edge"><title>Material&#45;&gt;Material</title>
<path style="fill:none;stroke:black;" d="M340,-541C347,-544 351,-549 351,-555 351,-561 347,-566 340,-569"/>
<polygon style="fill:black;stroke:black;" points="334,-539 340.546,-538.336 336.846,-539.949 339.692,-540.897 339.692,-540.897 339.692,-540.897 336.846,-539.949 338.838,-543.459 334,-539 334,-539"/>
<polygon style="fill:black;stroke:black;" points="334,-571 338.838,-566.541 336.846,-570.051 339.692,-569.103 339.692,-569.103 339.692,-569.103 336.846,-570.051 340.546,-571.664 334,-571 334,-571"/>
<text text-anchor="middle" x="341" y="-543.8" style="font-family:Bitstream Vera Sans;font-size:8.00;">*</text>
</g>
<!-- HigherLevelAnalysis&#45;&gt;Identifiable -->
<g id="edge38" class="edge"><title>HigherLevelAnalysis&#45;&gt;Identifiable</title>
<path style="fill:none;stroke:black;" d="M172,-185C213,-298 362,-717 402,-828"/>
<polygon style="fill:none;stroke:black;" points="398.774,-829.427 405,-838 405.479,-827.416 398.774,-829.427"/>
</g>
<!-- HigherLevelAnalysis&#45;&gt;Description -->
<g id="edge62" class="edge"><title>HigherLevelAnalysis&#45;&gt;Description</title>
<path style="fill:none;stroke:black;" d="M144,-185C136,-201 127,-220 121,-236"/>
<polygon style="fill:black;stroke:black;" points="117,-246 116.536,-235.044 118.857,-241.358 120.714,-236.715 120.714,-236.715 120.714,-236.715 118.857,-241.358 124.892,-238.387 117,-246 117,-246"/>
<text text-anchor="middle" x="136" y="-188.8" style="font-family:Bitstream Vera Sans;font-size:8.00;">*</text>
</g>
<!-- HigherLevelAnalysis&#45;&gt;Description -->
<g id="edge64" class="edge"><title>HigherLevelAnalysis&#45;&gt;Description</title>
<path style="fill:none;stroke:black;" d="M156,-185C150,-201 142,-220 134,-237"/>
<polygon style="fill:black;stroke:black;" points="129,-246 129.923,-235.073 131.428,-241.629 133.856,-237.258 133.856,-237.258 133.856,-237.258 131.428,-241.629 137.79,-239.444 129,-246 129,-246"/>
<text text-anchor="middle" x="149" y="-189.8" style="font-family:Bitstream Vera Sans;font-size:8.00;">*</text>
</g>
<!-- HigherLevelAnalysis&#45;&gt;Data -->
<g id="edge96" class="edge"><title>HigherLevelAnalysis&#45;&gt;Data</title>
<path style="fill:none;stroke:black;" d="M194,-189C212,-207 233,-230 249,-246"/>
<polygon style="fill:black;stroke:black;" points="190,-185 196.152,-187.333 192.121,-187.121 194.243,-189.243 194.243,-189.243 194.243,-189.243 192.121,-187.121 192.333,-191.152 190,-185 190,-185"/>
<polygon style="fill:black;stroke:black;" points="253,-251 247.143,-248.001 251.126,-248.657 249.252,-246.315 249.252,-246.315 249.252,-246.315 251.126,-248.657 251.36,-244.628 253,-251 253,-251"/>
<text text-anchor="middle" x="193" y="-191.8" style="font-family:Bitstream Vera Sans;font-size:8.00;">*</text>
</g>
<!-- FugeData&#45;&gt;Identifiable -->
<g id="edge40" class="edge"><title>FugeData&#45;&gt;Identifiable</title>
<path style="fill:none;stroke:black;" d="M722,-771C665,-787 529,-824 457,-843"/>
<polygon style="fill:none;stroke:black;" points="455.573,-839.774 447,-846 457.584,-846.479 455.573,-839.774"/>
</g>
<!-- FugeDimensionElement&#45;&gt;Identifiable -->
<g id="edge42" class="edge"><title>FugeDimensionElement&#45;&gt;Identifiable</title>
<path style="fill:none;stroke:black;" d="M607,-782C563,-799 500,-822 456,-838"/>
<polygon style="fill:none;stroke:black;" points="454.717,-834.74 447,-842 457.56,-841.137 454.717,-834.74"/>
</g>
<!-- fuge.common -->
<g id="node2" class="node"><title>fuge.common</title>
<polygon style="fill:#fbb4ae;stroke:black;" points="172,-42 172,-78 237,-78 237,-42 172,-42"/>
<text text-anchor="middle" x="204" y="-66.8" style="font-family:Arial;font-size:8.00;">fuge.common</text>
</g>
<!-- fuge.bio -->
<g id="node3" class="node"><title>fuge.bio</title>
<polygon style="fill:#b3cde3;stroke:black;" points="100,-42 100,-78 154,-78 154,-42 100,-42"/>
<text text-anchor="middle" x="127" y="-66.8" style="font-family:Arial;font-size:8.00;">fuge.bio</text>
</g>
<!-- spook_legend -->
<g id="node4" class="node"><title>spook_legend</title>
</g>
<!-- Identifiable -->
<g id="node6" class="node"><title>Identifiable</title>
<polygon style="fill:#fbb4ae;stroke:black;" points="376,-838 376,-874 447,-874 447,-838 376,-838"/>
<text text-anchor="middle" x="411" y="-862.8" style="font-family:Arial;font-size:8.00;">Identifiable</text>
<polyline style="fill:none;stroke:black;" points="376,-856 447,-856 "/>
<text text-anchor="start" x="383.5" y="-844.8" style="font-family:Arial;font-size:8.00;">name : varchar</text>
</g>
<!-- Describable -->
<g id="node7" class="node"><title>Describable</title>
<polygon style="fill:#fbb4ae;stroke:black;" points="382,-910 382,-946 441,-946 441,-910 382,-910"/>
<text text-anchor="middle" x="411" y="-934.8" style="font-family:Arial;font-size:8.00;">Describable</text>
<polyline style="fill:none;stroke:black;" points="382,-928 441,-928 "/>
<text text-anchor="start" x="389.5" y="-916.8" style="font-family:Arial;font-size:8.00;">id : int</text>
</g>
<!-- Security -->
<g id="node8" class="node"><title>Security</title>
<polygon style="fill:#fbb4ae;stroke:black;" points="201,-639 201,-675 311,-675 311,-639 201,-639"/>
<text text-anchor="middle" x="256" y="-663.8" style="font-family:Arial;font-size:8.00;">Security</text>
<polyline style="fill:none;stroke:black;" points="201,-657 311,-657 "/>
<text text-anchor="start" x="209" y="-645.8" style="font-family:Arial;font-size:8.00;">owners : mref(Contact.id)</text>
</g>
<!-- OntologyTerm -->
<g id="node9" class="node"><title>OntologyTerm</title>
<polygon style="fill:#fbb4ae;stroke:black;" points="329,-629 329,-685 497,-685 497,-629 329,-629"/>
<text text-anchor="middle" x="413" y="-673.8" style="font-family:Arial;font-size:8.00;">OntologyTerm</text>
<polyline style="fill:none;stroke:black;" points="329,-667 497,-667 "/>
<text text-anchor="start" x="337" y="-655.8" style="font-family:Arial;font-size:8.00;">term : varchar</text>
<text text-anchor="start" x="337" y="-645.8" style="font-family:Arial;font-size:8.00;">termAccession : varchar</text>
<text text-anchor="start" x="337" y="-635.8" style="font-family:Arial;font-size:8.00;">ontologySource : xref(OntologySource.id)</text>
</g>
<!-- URI -->
<g id="node10" class="node"><title>URI</title>
<polygon style="fill:#fbb4ae;stroke:black;" points="714,-838 714,-874 797,-874 797,-838 714,-838"/>
<text text-anchor="middle" x="755" y="-862.8" style="font-family:Arial;font-size:8.00;">URI</text>
<polyline style="fill:none;stroke:black;" points="714,-856 797,-856 "/>
<text text-anchor="start" x="721.5" y="-844.8" style="font-family:Arial;font-size:8.00;">location : hyperlink</text>
</g>
<!-- OntologySource -->
<g id="node11" class="node"><title>OntologySource</title>
<polygon style="fill:#fbb4ae;stroke:black;" points="430,-746 430,-782 528,-782 528,-746 430,-746"/>
<text text-anchor="middle" x="479" y="-770.8" style="font-family:Arial;font-size:8.00;">OntologySource</text>
<polyline style="fill:none;stroke:black;" points="430,-764 528,-764 "/>
<text text-anchor="start" x="438" y="-752.8" style="font-family:Arial;font-size:8.00;">ontologyURI : hyperlink</text>
</g>
<!-- Contact -->
<g id="node12" class="node"><title>Contact</title>
<polygon style="fill:#fbb4ae;stroke:black;" points="272,-726 272,-802 372,-802 372,-726 272,-726"/>
<text text-anchor="middle" x="322" y="-790.8" style="font-family:Arial;font-size:8.00;">Contact</text>
<polyline style="fill:none;stroke:black;" points="272,-784 372,-784 "/>
<text text-anchor="start" x="280" y="-772.8" style="font-family:Arial;font-size:8.00;">address : varchar</text>
<text text-anchor="start" x="280" y="-762.8" style="font-family:Arial;font-size:8.00;">phone : varchar</text>
<text text-anchor="start" x="280" y="-752.8" style="font-family:Arial;font-size:8.00;">email : varchar</text>
<text text-anchor="start" x="280" y="-742.8" style="font-family:Arial;font-size:8.00;">fax : varchar</text>
<text text-anchor="start" x="280" y="-732.8" style="font-family:Arial;font-size:8.00;">tollFreePhone : varchar</text>
</g>
<!-- Description -->
<g id="node13" class="node"><title>Description</title>
<polygon style="fill:#fbb4ae;stroke:black;" points="20,-246 20,-292 206,-292 206,-246 20,-246"/>
<text text-anchor="middle" x="113" y="-280.8" style="font-family:Arial;font-size:8.00;">Description</text>
<polyline style="fill:none;stroke:black;" points="20,-274 206,-274 "/>
<text text-anchor="start" x="28" y="-262.8" style="font-family:Arial;font-size:8.00;">text : varchar</text>
<text text-anchor="start" x="28" y="-252.8" style="font-family:Arial;font-size:8.00;">Describable_descriptions : xref(Describable.id)</text>
</g>
<!-- DatabaseReference -->
<g id="node14" class="node"><title>DatabaseReference</title>
<polygon style="fill:#fbb4ae;stroke:black;" points="586,-624 586,-690 757,-690 757,-624 586,-624"/>
<text text-anchor="middle" x="671" y="-678.8" style="font-family:Arial;font-size:8.00;">DatabaseReference</text>
<polyline style="fill:none;stroke:black;" points="586,-672 757,-672 "/>
<text text-anchor="start" x="593.5" y="-660.8" style="font-family:Arial;font-size:8.00;">accession : varchar</text>
<text text-anchor="start" x="593.5" y="-650.8" style="font-family:Arial;font-size:8.00;">accessionVersion : varchar</text>
<text text-anchor="start" x="593.5" y="-640.8" style="font-family:Arial;font-size:8.00;">database_id : xref(Database.id)</text>
<text text-anchor="start" x="593.5" y="-630.8" style="font-family:Arial;font-size:8.00;">IdentifiableReferences : xref(Identifiable.id)</text>
</g>
<!-- Database -->
<g id="node15" class="node"><title>Database</title>
<polygon style="fill:#fbb4ae;stroke:black;" points="80,-741 80,-787 158,-787 158,-741 80,-741"/>
<text text-anchor="middle" x="119" y="-775.8" style="font-family:Arial;font-size:8.00;">Database</text>
<polyline style="fill:none;stroke:black;" points="80,-769 158,-769 "/>
<text text-anchor="start" x="88" y="-757.8" style="font-family:Arial;font-size:8.00;">version : varchar</text>
<text text-anchor="start" x="88" y="-747.8" style="font-family:Arial;font-size:8.00;">dburi : hyperlink</text>
</g>
<!-- FugeProtocolApplication -->
<g id="node16" class="node"><title>FugeProtocolApplication</title>
<polygon style="fill:#fbb4ae;stroke:black;" points="246,-114 246,-200 401,-200 401,-114 246,-114"/>
<text text-anchor="middle" x="323" y="-188.8" style="font-family:Arial;font-size:8.00;">FugeProtocolApplication</text>
<polyline style="fill:none;stroke:black;" points="246,-182 401,-182 "/>
<text text-anchor="start" x="253.5" y="-170.8" style="font-family:Arial;font-size:8.00;">activityDate : datetime</text>
<text text-anchor="start" x="253.5" y="-160.8" style="font-family:Arial;font-size:8.00;">inputData : mref(Data.id)</text>
<text text-anchor="start" x="253.5" y="-150.8" style="font-family:Arial;font-size:8.00;">protocol : xref(Protocol.id)</text>
<text text-anchor="start" x="253.5" y="-140.8" style="font-family:Arial;font-size:8.00;">protocolDeviation : xref(Description.id)</text>
<text text-anchor="start" x="253.5" y="-130.8" style="font-family:Arial;font-size:8.00;">outputMaterials : mref(Material.id)</text>
<text text-anchor="start" x="253.5" y="-120.8" style="font-family:Arial;font-size:8.00;">outputData : mref(Data.id)</text>
</g>
<!-- ParameterizableApplication -->
<g id="node17" class="node"><title>ParameterizableApplication</title>
<polygon style="fill:#fbb4ae;stroke:black;" points="578,-343 578,-379 692,-379 692,-343 578,-343"/>
<text text-anchor="middle" x="635" y="-367.8" style="font-family:Arial;font-size:8.00;">ParameterizableApplication</text>
<polyline style="fill:none;stroke:black;" points="578,-361 692,-361 "/>
<text text-anchor="middle" x="635" y="-349.8" style="font-family:Arial;font-size:8.00;"> </text>
</g>
<!-- Protocol -->
<g id="node18" class="node"><title>Protocol</title>
<polygon style="fill:#fbb4ae;stroke:black;" points="336,-236 336,-302 483,-302 483,-236 336,-236"/>
<text text-anchor="middle" x="409" y="-290.8" style="font-family:Arial;font-size:8.00;">Protocol</text>
<polyline style="fill:none;stroke:black;" points="336,-284 483,-284 "/>
<text text-anchor="start" x="343.5" y="-272.8" style="font-family:Arial;font-size:8.00;">outputTypes : mref(OntologyTerm.id)</text>
<text text-anchor="start" x="343.5" y="-262.8" style="font-family:Arial;font-size:8.00;">inputTypes : mref(OntologyTerm.id)</text>
<text text-anchor="start" x="343.5" y="-252.8" style="font-family:Arial;font-size:8.00;">software : mref(Software.id)</text>
<text text-anchor="start" x="343.5" y="-242.8" style="font-family:Arial;font-size:8.00;">equipment : mref(Equipment.id)</text>
</g>
<!-- Parameterizable -->
<g id="node19" class="node"><title>Parameterizable</title>
<polygon style="fill:#fbb4ae;stroke:black;" points="438,-537 438,-573 561,-573 561,-537 438,-537"/>
<text text-anchor="middle" x="499" y="-561.8" style="font-family:Arial;font-size:8.00;">Parameterizable</text>
<polyline style="fill:none;stroke:black;" points="438,-555 561,-555 "/>
<text text-anchor="start" x="445.5" y="-543.8" style="font-family:Arial;font-size:8.00;">types : mref(OntologyTerm.id)</text>
</g>
<!-- Software -->
<g id="node20" class="node"><title>Software</title>
<polygon style="fill:#fbb4ae;stroke:black;" points="395,-338 395,-384 522,-384 522,-338 395,-338"/>
<text text-anchor="middle" x="458" y="-372.8" style="font-family:Arial;font-size:8.00;">Software</text>
<polyline style="fill:none;stroke:black;" points="395,-366 522,-366 "/>
<text text-anchor="start" x="402.5" y="-354.8" style="font-family:Arial;font-size:8.00;">version : varchar</text>
<text text-anchor="start" x="402.5" y="-344.8" style="font-family:Arial;font-size:8.00;">equipment : mref(Equipment.id)</text>
</g>
<!-- Equipment -->
<g id="node21" class="node"><title>Equipment</title>
<polygon style="fill:#fbb4ae;stroke:black;" points="356,-420 356,-486 502,-486 502,-420 356,-420"/>
<text text-anchor="middle" x="429" y="-474.8" style="font-family:Arial;font-size:8.00;">Equipment</text>
<polyline style="fill:none;stroke:black;" points="356,-468 502,-468 "/>
<text text-anchor="start" x="364" y="-456.8" style="font-family:Arial;font-size:8.00;">make : xref(OntologyTerm.id)</text>
<text text-anchor="start" x="364" y="-446.8" style="font-family:Arial;font-size:8.00;">equipmentParts : mref(Equipment.id)</text>
<text text-anchor="start" x="364" y="-436.8" style="font-family:Arial;font-size:8.00;">software : mref(Software.id)</text>
<text text-anchor="start" x="364" y="-426.8" style="font-family:Arial;font-size:8.00;">model : xref(OntologyTerm.id)</text>
</g>
<!-- FugeInvestigation -->
<g id="node22" class="node"><title>FugeInvestigation</title>
<polygon style="fill:#b3cde3;stroke:black;" points="176,-741 176,-787 255,-787 255,-741 176,-741"/>
<text text-anchor="middle" x="215" y="-775.8" style="font-family:Arial;font-size:8.00;">FugeInvestigation</text>
<polyline style="fill:none;stroke:black;" points="176,-769 255,-769 "/>
<text text-anchor="start" x="183.5" y="-757.8" style="font-family:Arial;font-size:8.00;">start : datetime</text>
<text text-anchor="start" x="183.5" y="-747.8" style="font-family:Arial;font-size:8.00;">end : datetime</text>
</g>
<!-- Material -->
<g id="node23" class="node"><title>Material</title>
<polygon style="fill:#b3cde3;stroke:black;" points="149,-522 149,-588 334,-588 334,-522 149,-522"/>
<text text-anchor="middle" x="241" y="-576.8" style="font-family:Arial;font-size:8.00;">Material</text>
<polyline style="fill:none;stroke:black;" points="149,-570 334,-570 "/>
<text text-anchor="start" x="156.5" y="-558.8" style="font-family:Arial;font-size:8.00;">components : mref(Material.id)</text>
<text text-anchor="start" x="156.5" y="-548.8" style="font-family:Arial;font-size:8.00;">materialType : xref(OntologyTerm.id)</text>
<text text-anchor="start" x="156.5" y="-538.8" style="font-family:Arial;font-size:8.00;">characteristics : mref(OntologyTerm.id)</text>
<text text-anchor="start" x="156.5" y="-528.8" style="font-family:Arial;font-size:8.00;">qualityControlStatistics : mref(OntologyTerm.id)</text>
</g>
<!-- HigherLevelAnalysis -->
<g id="node24" class="node"><title>HigherLevelAnalysis</title>
<polygon style="fill:#b3cde3;stroke:black;" points="96,-129 96,-185 228,-185 228,-129 96,-129"/>
<text text-anchor="middle" x="162" y="-173.8" style="font-family:Arial;font-size:8.00;">HigherLevelAnalysis</text>
<polyline style="fill:none;stroke:black;" points="96,-167 228,-167 "/>
<text text-anchor="start" x="104" y="-155.8" style="font-family:Arial;font-size:8.00;">conclusion : xref(Description.id)</text>
<text text-anchor="start" x="104" y="-145.8" style="font-family:Arial;font-size:8.00;">supportingData : mref(Data.id)</text>
<text text-anchor="start" x="104" y="-135.8" style="font-family:Arial;font-size:8.00;">hypothesis : xref(Description.id)</text>
</g>
<!-- FugeData -->
<g id="node25" class="node"><title>FugeData</title>
<polygon style="fill:#b3cde3;stroke:black;" points="722,-746 722,-782 776,-782 776,-746 722,-746"/>
<text text-anchor="middle" x="749" y="-770.8" style="font-family:Arial;font-size:8.00;">FugeData</text>
<polyline style="fill:none;stroke:black;" points="722,-764 776,-764 "/>
<text text-anchor="middle" x="749" y="-752.8" style="font-family:Arial;font-size:8.00;"> </text>
</g>
<!-- FugeDimensionElement -->
<g id="node26" class="node"><title>FugeDimensionElement</title>
<polygon style="fill:#b3cde3;stroke:black;" points="606,-746 606,-782 705,-782 705,-746 606,-746"/>
<text text-anchor="middle" x="655" y="-770.8" style="font-family:Arial;font-size:8.00;">FugeDimensionElement</text>
<polyline style="fill:none;stroke:black;" points="606,-764 705,-764 "/>
<text text-anchor="middle" x="655" y="-752.8" style="font-family:Arial;font-size:8.00;"> </text>
</g>
<!-- Data -->
<g id="node60" class="node"><title>Data</title>
<polygon style="fill:white;stroke:#808080;" points="244,-251 244,-287 298,-287 298,-251 244,-251"/>
<text text-anchor="middle" x="271" y="-275.8" style="font-family:Arial;font-size:8.00;">Data</text>
</g>
<!-- spook_main -->
<g id="node75" class="node"><title>spook_main</title>
</g>
</g>
</svg>
