<?xml version="1.0" encoding="UTF-8" standalone="no"?>
<!DOCTYPE svg PUBLIC "-//W3C//DTD SVG 1.0//EN"
 "http://www.w3.org/TR/2001/REC-SVG-20010904/DTD/svg10.dtd" [
 <!ATTLIST svg xmlns:xlink CDATA #FIXED "http://www.w3.org/1999/xlink">
]>
<!-- Generated by Graphviz version 2.20.2 (Mon Mar 30 10:11:53 UTC 2009)
     For user: (jvelde)  -->
<!-- Title: G Pages: 1 -->
<svg width="816pt" height="928pt"
 viewBox="0.00 0.00 816.00 928.00" xmlns="http://www.w3.org/2000/svg" xmlns:xlink="http://www.w3.org/1999/xlink">
<g id="graph0" class="graph" transform="scale(1 1) rotate(0) translate(4 924)">
<title>G</title>
<polygon style="fill:white;stroke:white;" points="-4,4 -4,-924 812,-924 812,4 -4,4"/>
<g id="cluster2" class="cluster"><title>cluster_main</title>
<polygon style="fill:white;stroke:black;" points="8,-64 8,-912 800,-912 800,-64 8,-64"/>
</g>
<!-- Identifiable&#45;&gt;Describable -->
<g id="edge3" class="edge"><title>Identifiable&#45;&gt;Describable</title>
<path style="fill:none;stroke:black;" d="M407,-832C407,-840 407,-849 407,-858"/>
<polygon style="fill:none;stroke:black;" points="403.5,-858 407,-868 410.5,-858 403.5,-858"/>
</g>
<!-- Security&#45;&gt;Identifiable -->
<g id="edge5" class="edge"><title>Security&#45;&gt;Identifiable</title>
<path style="fill:none;stroke:black;" d="M266,-633C293,-669 354,-747 387,-788"/>
<polygon style="fill:none;stroke:black;" points="384.2,-790.1 393,-796 389.8,-785.9 384.2,-790.1"/>
</g>
<!-- Security&#45;&gt;Contact -->
<g id="edge65" class="edge"><title>Security&#45;&gt;Contact</title>
<path style="fill:none;stroke:black;" d="M266,-638C274,-650 283,-665 291,-679"/>
<polygon style="fill:black;stroke:black;" points="263,-633 268.402,-636.756 264.544,-635.572 266.087,-638.145 266.087,-638.145 266.087,-638.145 264.544,-635.572 263.772,-639.534 263,-633 263,-633"/>
<polygon style="fill:black;stroke:black;" points="294,-684 288.598,-680.244 292.456,-681.428 290.913,-678.855 290.913,-678.855 290.913,-678.855 292.456,-681.428 293.228,-677.466 294,-684 294,-684"/>
<text text-anchor="middle" x="264" y="-640.8" style="font-family:Bitstream Vera Sans;font-size:8.00;">*</text>
</g>
<!-- OntologyTerm&#45;&gt;Identifiable -->
<g id="edge7" class="edge"><title>OntologyTerm&#45;&gt;Identifiable</title>
<path style="fill:none;stroke:black;" d="M409,-643C408,-681 407,-748 407,-786"/>
<polygon style="fill:none;stroke:black;" points="403.5,-786 407,-796 410.5,-786 403.5,-786"/>
</g>
<!-- OntologyTerm&#45;&gt;OntologySource -->
<g id="edge43" class="edge"><title>OntologyTerm&#45;&gt;OntologySource</title>
<path style="fill:none;stroke:black;" d="M426,-643C436,-659 449,-679 459,-695"/>
<polygon style="fill:black;stroke:black;" points="464,-704 455.21,-697.444 461.572,-699.629 459.144,-695.258 459.144,-695.258 459.144,-695.258 461.572,-699.629 463.077,-693.073 464,-704 464,-704"/>
<text text-anchor="middle" x="427" y="-650.8" style="font-family:Bitstream Vera Sans;font-size:8.00;">*</text>
</g>
<!-- URI&#45;&gt;Describable -->
<g id="edge9" class="edge"><title>URI&#45;&gt;Describable</title>
<path style="fill:none;stroke:black;" d="M710,-823C644,-837 513,-864 447,-878"/>
<polygon style="fill:none;stroke:black;" points="446.119,-874.607 437,-880 447.492,-881.471 446.119,-874.607"/>
</g>
<!-- OntologySource&#45;&gt;Identifiable -->
<g id="edge11" class="edge"><title>OntologySource&#45;&gt;Identifiable</title>
<path style="fill:none;stroke:black;" d="M462,-740C452,-753 438,-772 427,-788"/>
<polygon style="fill:none;stroke:black;" points="424.2,-785.9 421,-796 429.8,-790.1 424.2,-785.9"/>
</g>
<!-- Contact&#45;&gt;Identifiable -->
<g id="edge13" class="edge"><title>Contact&#45;&gt;Identifiable</title>
<path style="fill:none;stroke:black;" d="M355,-760C364,-769 374,-780 383,-789"/>
<polygon style="fill:none;stroke:black;" points="380.454,-791.404 390,-796 385.404,-786.454 380.454,-791.404"/>
</g>
<!-- Description&#45;&gt;Describable -->
<g id="edge45" class="edge"><title>Description&#45;&gt;Describable</title>
<path style="fill:none;stroke:black;" d="M117,-250C157,-351 338,-751 392,-859"/>
<polygon style="fill:black;stroke:black;" points="396,-868 387.826,-860.69 393.969,-863.431 391.939,-858.862 391.939,-858.862 391.939,-858.862 393.969,-863.431 396.051,-857.034 396,-868 396,-868"/>
<text text-anchor="middle" x="117" y="-257.8" style="font-family:Bitstream Vera Sans;font-size:8.00;">*</text>
</g>
<!-- Description&#45;&gt;Describable -->
<g id="edge15" class="edge"><title>Description&#45;&gt;Describable</title>
<path style="fill:none;stroke:black;" d="M122,-250C172,-351 354,-750 397,-859"/>
<polygon style="fill:none;stroke:black;" points="393.74,-860.283 401,-868 400.137,-857.44 393.74,-860.283"/>
</g>
<!-- DatabaseReference&#45;&gt;Identifiable -->
<g id="edge49" class="edge"><title>DatabaseReference&#45;&gt;Identifiable</title>
<path style="fill:none;stroke:black;" d="M624,-648C572,-689 486,-754 439,-790"/>
<polygon style="fill:black;stroke:black;" points="431,-796 436.3,-786.4 435,-793 439,-790 439,-790 439,-790 435,-793 441.7,-793.6 431,-796 431,-796"/>
<text text-anchor="middle" x="614" y="-647.8" style="font-family:Bitstream Vera Sans;font-size:8.00;">*</text>
</g>
<!-- DatabaseReference&#45;&gt;Describable -->
<g id="edge17" class="edge"><title>DatabaseReference&#45;&gt;Describable</title>
<path style="fill:none;stroke:black;" d="M635,-648C583,-703 479,-811 432,-861"/>
<polygon style="fill:none;stroke:black;" points="429.596,-858.454 425,-868 434.546,-863.404 429.596,-858.454"/>
</g>
<!-- DatabaseReference&#45;&gt;Database -->
<g id="edge47" class="edge"><title>DatabaseReference&#45;&gt;Database</title>
<path style="fill:none;stroke:black;" d="M582,-631C465,-653 258,-694 164,-712"/>
<polygon style="fill:black;stroke:black;" points="154,-714 162.923,-707.626 158.903,-713.019 163.806,-712.039 163.806,-712.039 163.806,-712.039 158.903,-713.019 164.688,-716.451 154,-714 154,-714"/>
<text text-anchor="middle" x="572" y="-626.8" style="font-family:Bitstream Vera Sans;font-size:8.00;">*</text>
</g>
<!-- Database&#45;&gt;Identifiable -->
<g id="edge19" class="edge"><title>Database&#45;&gt;Identifiable</title>
<path style="fill:none;stroke:black;" d="M154,-734C208,-751 305,-781 362,-800"/>
<polygon style="fill:none;stroke:black;" points="361.416,-803.479 372,-803 363.427,-796.774 361.416,-803.479"/>
</g>
<!-- FugeProtocolApplication&#45;&gt;Description -->
<g id="edge53" class="edge"><title>FugeProtocolApplication&#45;&gt;Description</title>
<path style="fill:none;stroke:black;" d="M242,-156C215,-170 186,-186 161,-199"/>
<polygon style="fill:black;stroke:black;" points="152,-204 158.556,-195.21 156.371,-201.572 160.742,-199.144 160.742,-199.144 160.742,-199.144 156.371,-201.572 162.927,-203.077 152,-204 152,-204"/>
<text text-anchor="middle" x="232" y="-153.8" style="font-family:Bitstream Vera Sans;font-size:8.00;">*</text>
</g>
<!-- FugeProtocolApplication&#45;&gt;ParameterizableApplication -->
<g id="edge21" class="edge"><title>FugeProtocolApplication&#45;&gt;ParameterizableApplication</title>
<path style="fill:none;stroke:black;" d="M385,-158C448,-200 543,-262 594,-295"/>
<polygon style="fill:none;stroke:black;" points="592.738,-298.365 603,-301 596.621,-292.541 592.738,-298.365"/>
</g>
<!-- FugeProtocolApplication&#45;&gt;Protocol -->
<g id="edge51" class="edge"><title>FugeProtocolApplication&#45;&gt;Protocol</title>
<path style="fill:none;stroke:black;" d="M352,-158C359,-167 366,-177 373,-186"/>
<polygon style="fill:black;stroke:black;" points="379,-194 369.4,-188.7 376,-190 373,-186 373,-186 373,-186 376,-190 376.6,-183.3 379,-194 379,-194"/>
<text text-anchor="middle" x="354" y="-165.8" style="font-family:Bitstream Vera Sans;font-size:8.00;">*</text>
</g>
<!-- FugeProtocolApplication&#45;&gt;Material -->
<g id="edge69" class="edge"><title>FugeProtocolApplication&#45;&gt;Material</title>
<path style="fill:none;stroke:black;" d="M309,-164C292,-245 261,-401 245,-474"/>
<polygon style="fill:black;stroke:black;" points="310,-158 311.677,-164.362 309.507,-160.959 309.014,-163.918 309.014,-163.918 309.014,-163.918 309.507,-160.959 306.35,-163.474 310,-158 310,-158"/>
<polygon style="fill:black;stroke:black;" points="244,-480 242.323,-473.638 244.493,-477.041 244.986,-474.082 244.986,-474.082 244.986,-474.082 244.493,-477.041 247.65,-474.526 244,-480 244,-480"/>
<text text-anchor="middle" x="304" y="-163.8" style="font-family:Bitstream Vera Sans;font-size:8.00;">*</text>
</g>
<!-- FugeProtocolApplication&#45;&gt;Data -->
<g id="edge67" class="edge"><title>FugeProtocolApplication&#45;&gt;Data</title>
<path style="fill:none;stroke:black;" d="M290,-164C283,-178 276,-191 272,-203"/>
<polygon style="fill:black;stroke:black;" points="292,-158 292.664,-164.546 291.051,-160.846 290.103,-163.692 290.103,-163.692 290.103,-163.692 291.051,-160.846 287.541,-162.838 292,-158 292,-158"/>
<polygon style="fill:black;stroke:black;" points="270,-209 269.336,-202.454 270.949,-206.154 271.897,-203.308 271.897,-203.308 271.897,-203.308 270.949,-206.154 274.459,-204.162 270,-209 270,-209"/>
<text text-anchor="middle" x="285" y="-162.8" style="font-family:Bitstream Vera Sans;font-size:8.00;">*</text>
</g>
<!-- FugeProtocolApplication&#45;&gt;Data -->
<g id="edge71" class="edge"><title>FugeProtocolApplication&#45;&gt;Data</title>
<path style="fill:none;stroke:black;" d="M303,-164C297,-178 289,-192 283,-204"/>
<polygon style="fill:black;stroke:black;" points="305,-158 305.664,-164.546 304.051,-160.846 303.103,-163.692 303.103,-163.692 303.103,-163.692 304.051,-160.846 300.541,-162.838 305,-158 305,-158"/>
<polygon style="fill:black;stroke:black;" points="280,-209 280.772,-202.466 281.544,-206.428 283.087,-203.855 283.087,-203.855 283.087,-203.855 281.544,-206.428 285.402,-205.244 280,-209 280,-209"/>
<text text-anchor="middle" x="298" y="-162.8" style="font-family:Bitstream Vera Sans;font-size:8.00;">*</text>
</g>
<!-- ParameterizableApplication&#45;&gt;Identifiable -->
<g id="edge23" class="edge"><title>ParameterizableApplication&#45;&gt;Identifiable</title>
<path style="fill:none;stroke:black;" d="M623,-337C588,-412 460,-696 419,-787"/>
<polygon style="fill:none;stroke:black;" points="415.863,-785.44 415,-796 422.26,-788.283 415.863,-785.44"/>
</g>
<!-- Protocol&#45;&gt;OntologyTerm -->
<g id="edge73" class="edge"><title>Protocol&#45;&gt;OntologyTerm</title>
<path style="fill:none;stroke:black;" d="M401,-266C399,-343 401,-509 405,-581"/>
<polygon style="fill:black;stroke:black;" points="401,-260 403.7,-266 401,-263 401,-266 401,-266 401,-266 401,-263 398.3,-266 401,-260 401,-260"/>
<polygon style="fill:black;stroke:black;" points="405,-587 402.3,-581 405,-584 405,-581 405,-581 405,-581 405,-584 407.7,-581 405,-587 405,-587"/>
<text text-anchor="middle" x="397" y="-266.8" style="font-family:Bitstream Vera Sans;font-size:8.00;">*</text>
</g>
<!-- Protocol&#45;&gt;OntologyTerm -->
<g id="edge75" class="edge"><title>Protocol&#45;&gt;OntologyTerm</title>
<path style="fill:none;stroke:black;" d="M409,-266C414,-343 415,-509 412,-581"/>
<polygon style="fill:black;stroke:black;" points="409,-260 411.7,-266 409,-263 409,-266 409,-266 409,-266 409,-263 406.3,-266 409,-260 409,-260"/>
<polygon style="fill:black;stroke:black;" points="412,-587 409.3,-581 412,-584 412,-581 412,-581 412,-581 412,-584 414.7,-581 412,-587 412,-587"/>
<text text-anchor="middle" x="405" y="-266.8" style="font-family:Bitstream Vera Sans;font-size:8.00;">*</text>
</g>
<!-- Protocol&#45;&gt;Parameterizable -->
<g id="edge25" class="edge"><title>Protocol&#45;&gt;Parameterizable</title>
<path style="fill:none;stroke:black;" d="M415,-260C433,-316 469,-432 486,-485"/>
<polygon style="fill:none;stroke:black;" points="482.774,-486.427 489,-495 489.479,-484.416 482.774,-486.427"/>
</g>
<!-- Protocol&#45;&gt;Software -->
<g id="edge77" class="edge"><title>Protocol&#45;&gt;Software</title>
<path style="fill:none;stroke:black;" d="M426,-265C430,-274 435,-283 439,-291"/>
<polygon style="fill:black;stroke:black;" points="423,-260 428.402,-263.756 424.544,-262.572 426.087,-265.145 426.087,-265.145 426.087,-265.145 424.544,-262.572 423.772,-266.534 423,-260 423,-260"/>
<polygon style="fill:black;stroke:black;" points="442,-296 436.598,-292.244 440.456,-293.428 438.913,-290.855 438.913,-290.855 438.913,-290.855 440.456,-293.428 441.228,-289.466 442,-296 442,-296"/>
<text text-anchor="middle" x="424" y="-267.8" style="font-family:Bitstream Vera Sans;font-size:8.00;">*</text>
</g>
<!-- Protocol&#45;&gt;Equipment -->
<g id="edge79" class="edge"><title>Protocol&#45;&gt;Equipment</title>
<path style="fill:none;stroke:black;" d="M410,-266C413,-297 417,-340 420,-372"/>
<polygon style="fill:black;stroke:black;" points="409,-260 412.65,-265.474 409.493,-262.959 409.986,-265.918 409.986,-265.918 409.986,-265.918 409.493,-262.959 407.323,-266.362 409,-260 409,-260"/>
<polygon style="fill:black;stroke:black;" points="421,-378 417.35,-372.526 420.507,-375.041 420.014,-372.082 420.014,-372.082 420.014,-372.082 420.507,-375.041 422.677,-371.638 421,-378 421,-378"/>
<text text-anchor="middle" x="406" y="-267.8" style="font-family:Bitstream Vera Sans;font-size:8.00;">*</text>
</g>
<!-- Parameterizable&#45;&gt;Identifiable -->
<g id="edge27" class="edge"><title>Parameterizable&#45;&gt;Identifiable</title>
<path style="fill:none;stroke:black;" d="M490,-531C475,-582 433,-725 415,-786"/>
<polygon style="fill:none;stroke:black;" points="411.521,-785.416 412,-796 418.226,-787.427 411.521,-785.416"/>
</g>
<!-- Parameterizable&#45;&gt;OntologyTerm -->
<g id="edge81" class="edge"><title>Parameterizable&#45;&gt;OntologyTerm</title>
<path style="fill:none;stroke:black;" d="M476,-536C464,-550 450,-567 437,-582"/>
<polygon style="fill:black;stroke:black;" points="480,-531 478.36,-537.372 478.126,-533.343 476.252,-535.685 476.252,-535.685 476.252,-535.685 478.126,-533.343 474.143,-533.999 480,-531 480,-531"/>
<polygon style="fill:black;stroke:black;" points="433,-587 434.64,-580.628 434.874,-584.657 436.748,-582.315 436.748,-582.315 436.748,-582.315 434.874,-584.657 438.857,-584.001 433,-587 433,-587"/>
<text text-anchor="middle" x="471" y="-532.8" style="font-family:Bitstream Vera Sans;font-size:8.00;">*</text>
</g>
<!-- Software&#45;&gt;Parameterizable -->
<g id="edge29" class="edge"><title>Software&#45;&gt;Parameterizable</title>
<path style="fill:none;stroke:black;" d="M459,-342C466,-378 481,-446 489,-485"/>
<polygon style="fill:none;stroke:black;" points="485.607,-485.881 491,-495 492.471,-484.508 485.607,-485.881"/>
</g>
<!-- Software&#45;&gt;Equipment -->
<g id="edge83" class="edge"><title>Software&#45;&gt;Equipment</title>
<path style="fill:none;stroke:black;" d="M439,-348C436,-355 433,-364 430,-372"/>
<polygon style="fill:black;stroke:black;" points="441,-342 441.664,-348.546 440.051,-344.846 439.103,-347.692 439.103,-347.692 439.103,-347.692 440.051,-344.846 436.541,-346.838 441,-342 441,-342"/>
<polygon style="fill:black;stroke:black;" points="429,-378 427.323,-371.638 429.493,-375.041 429.986,-372.082 429.986,-372.082 429.986,-372.082 429.493,-375.041 432.65,-372.526 429,-378 429,-378"/>
<text text-anchor="middle" x="434" y="-346.8" style="font-family:Bitstream Vera Sans;font-size:8.00;">*</text>
</g>
<!-- Equipment&#45;&gt;OntologyTerm -->
<g id="edge55" class="edge"><title>Equipment&#45;&gt;OntologyTerm</title>
<path style="fill:none;stroke:black;" d="M417,-444C412,-481 408,-538 406,-577"/>
<polygon style="fill:black;stroke:black;" points="406,-587 401.5,-577 406,-582 406,-577 406,-577 406,-577 406,-582 410.5,-577 406,-587 406,-587"/>
<text text-anchor="middle" x="412" y="-449.8" style="font-family:Bitstream Vera Sans;font-size:8.00;">*</text>
</g>
<!-- Equipment&#45;&gt;OntologyTerm -->
<g id="edge57" class="edge"><title>Equipment&#45;&gt;OntologyTerm</title>
<path style="fill:none;stroke:black;" d="M428,-444C427,-481 422,-538 417,-577"/>
<polygon style="fill:black;stroke:black;" points="416,-587 412.517,-576.602 416.498,-582.025 416.995,-577.05 416.995,-577.05 416.995,-577.05 416.498,-582.025 421.473,-577.497 416,-587 416,-587"/>
<text text-anchor="middle" x="423" y="-450.8" style="font-family:Bitstream Vera Sans;font-size:8.00;">*</text>
</g>
<!-- Equipment&#45;&gt;Parameterizable -->
<g id="edge31" class="edge"><title>Equipment&#45;&gt;Parameterizable</title>
<path style="fill:none;stroke:black;" d="M448,-444C457,-458 468,-474 477,-487"/>
<polygon style="fill:none;stroke:black;" points="474.2,-489.1 483,-495 479.8,-484.9 474.2,-489.1"/>
</g>
<!-- Equipment&#45;&gt;Software -->
<g id="edge87" class="edge"><title>Equipment&#45;&gt;Software</title>
<path style="fill:none;stroke:black;" d="M444,-372C447,-364 449,-355 451,-348"/>
<polygon style="fill:black;stroke:black;" points="442,-378 441.336,-371.454 442.949,-375.154 443.897,-372.308 443.897,-372.308 443.897,-372.308 442.949,-375.154 446.459,-373.162 442,-378 442,-378"/>
<polygon style="fill:black;stroke:black;" points="453,-342 453.664,-348.546 452.051,-344.846 451.103,-347.692 451.103,-347.692 451.103,-347.692 452.051,-344.846 448.541,-346.838 453,-342 453,-342"/>
<text text-anchor="middle" x="449" y="-368.8" style="font-family:Bitstream Vera Sans;font-size:8.00;">*</text>
</g>
<!-- Equipment&#45;&gt;Equipment -->
<g id="edge85" class="edge"><title>Equipment&#45;&gt;Equipment</title>
<path style="fill:none;stroke:black;" d="M504,-397C511,-400 516,-404 516,-411 516,-417 511,-422 504,-425"/>
<polygon style="fill:black;stroke:black;" points="498,-395 504.546,-394.336 500.846,-395.949 503.692,-396.897 503.692,-396.897 503.692,-396.897 500.846,-395.949 502.838,-399.459 498,-395 498,-395"/>
<polygon style="fill:black;stroke:black;" points="498,-427 502.838,-422.541 500.846,-426.051 503.692,-425.103 503.692,-425.103 503.692,-425.103 500.846,-426.051 504.546,-427.664 498,-427 498,-427"/>
<text text-anchor="middle" x="505" y="-399.8" style="font-family:Bitstream Vera Sans;font-size:8.00;">*</text>
</g>
<!-- FugeInvestigation&#45;&gt;Identifiable -->
<g id="edge33" class="edge"><title>FugeInvestigation&#45;&gt;Identifiable</title>
<path style="fill:none;stroke:black;" d="M251,-741C283,-757 329,-778 363,-794"/>
<polygon style="fill:none;stroke:black;" points="361.44,-797.137 372,-798 364.283,-790.74 361.44,-797.137"/>
</g>
<!-- Material&#45;&gt;Identifiable -->
<g id="edge35" class="edge"><title>Material&#45;&gt;Identifiable</title>
<path style="fill:none;stroke:black;" d="M256,-546C290,-606 361,-732 392,-787"/>
<polygon style="fill:none;stroke:black;" points="389.084,-788.958 397,-796 395.203,-785.559 389.084,-788.958"/>
</g>
<!-- Material&#45;&gt;OntologyTerm -->
<g id="edge59" class="edge"><title>Material&#45;&gt;OntologyTerm</title>
<path style="fill:none;stroke:black;" d="M280,-546C298,-557 320,-570 340,-582"/>
<polygon style="fill:black;stroke:black;" points="349,-587 338.073,-586.077 344.629,-584.572 340.258,-582.144 340.258,-582.144 340.258,-582.144 344.629,-584.572 342.444,-578.21 349,-587 349,-587"/>
<text text-anchor="middle" x="286" y="-551.8" style="font-family:Bitstream Vera Sans;font-size:8.00;">*</text>
</g>
<!-- Material&#45;&gt;OntologyTerm -->
<g id="edge91" class="edge"><title>Material&#45;&gt;OntologyTerm</title>
<path style="fill:none;stroke:black;" d="M298,-549C317,-560 338,-573 357,-584"/>
<polygon style="fill:black;stroke:black;" points="293,-546 299.534,-546.772 295.572,-547.544 298.145,-549.087 298.145,-549.087 298.145,-549.087 295.572,-547.544 296.756,-551.402 293,-546 293,-546"/>
<polygon style="fill:black;stroke:black;" points="362,-587 355.466,-586.228 359.428,-585.456 356.855,-583.913 356.855,-583.913 356.855,-583.913 359.428,-585.456 358.244,-581.598 362,-587 362,-587"/>
<text text-anchor="middle" x="299" y="-551.8" style="font-family:Bitstream Vera Sans;font-size:8.00;">*</text>
</g>
<!-- Material&#45;&gt;OntologyTerm -->
<g id="edge93" class="edge"><title>Material&#45;&gt;OntologyTerm</title>
<path style="fill:none;stroke:black;" d="M311,-549C331,-560 352,-572 369,-584"/>
<polygon style="fill:black;stroke:black;" points="306,-546 312.534,-546.772 308.572,-547.544 311.145,-549.087 311.145,-549.087 311.145,-549.087 308.572,-547.544 309.756,-551.402 306,-546 306,-546"/>
<polygon style="fill:black;stroke:black;" points="374,-587 367.466,-586.228 371.428,-585.456 368.855,-583.913 368.855,-583.913 368.855,-583.913 371.428,-585.456 370.244,-581.598 374,-587 374,-587"/>
<text text-anchor="middle" x="312" y="-551.8" style="font-family:Bitstream Vera Sans;font-size:8.00;">*</text>
</g>
<!-- Material&#45;&gt;Material -->
<g id="edge89" class="edge"><title>Material&#45;&gt;Material</title>
<path style="fill:none;stroke:black;" d="M336,-499C343,-502 347,-507 347,-513 347,-519 343,-524 336,-527"/>
<polygon style="fill:black;stroke:black;" points="330,-497 336.546,-496.336 332.846,-497.949 335.692,-498.897 335.692,-498.897 335.692,-498.897 332.846,-497.949 334.838,-501.459 330,-497 330,-497"/>
<polygon style="fill:black;stroke:black;" points="330,-529 334.838,-524.541 332.846,-528.051 335.692,-527.103 335.692,-527.103 335.692,-527.103 332.846,-528.051 336.546,-529.664 330,-529 330,-529"/>
<text text-anchor="middle" x="337" y="-501.8" style="font-family:Bitstream Vera Sans;font-size:8.00;">*</text>
</g>
<!-- HigherLevelAnalysis&#45;&gt;Identifiable -->
<g id="edge37" class="edge"><title>HigherLevelAnalysis&#45;&gt;Identifiable</title>
<path style="fill:none;stroke:black;" d="M168,-143C209,-256 358,-675 398,-786"/>
<polygon style="fill:none;stroke:black;" points="394.774,-787.427 401,-796 401.479,-785.416 394.774,-787.427"/>
</g>
<!-- HigherLevelAnalysis&#45;&gt;Description -->
<g id="edge61" class="edge"><title>HigherLevelAnalysis&#45;&gt;Description</title>
<path style="fill:none;stroke:black;" d="M140,-143C132,-159 123,-178 117,-194"/>
<polygon style="fill:black;stroke:black;" points="113,-204 112.536,-193.044 114.857,-199.358 116.714,-194.715 116.714,-194.715 116.714,-194.715 114.857,-199.358 120.892,-196.387 113,-204 113,-204"/>
<text text-anchor="middle" x="132" y="-146.8" style="font-family:Bitstream Vera Sans;font-size:8.00;">*</text>
</g>
<!-- HigherLevelAnalysis&#45;&gt;Description -->
<g id="edge63" class="edge"><title>HigherLevelAnalysis&#45;&gt;Description</title>
<path style="fill:none;stroke:black;" d="M152,-143C146,-159 138,-178 130,-195"/>
<polygon style="fill:black;stroke:black;" points="125,-204 125.923,-193.073 127.428,-199.629 129.856,-195.258 129.856,-195.258 129.856,-195.258 127.428,-199.629 133.79,-197.444 125,-204 125,-204"/>
<text text-anchor="middle" x="145" y="-147.8" style="font-family:Bitstream Vera Sans;font-size:8.00;">*</text>
</g>
<!-- HigherLevelAnalysis&#45;&gt;Data -->
<g id="edge95" class="edge"><title>HigherLevelAnalysis&#45;&gt;Data</title>
<path style="fill:none;stroke:black;" d="M190,-147C208,-165 229,-188 245,-204"/>
<polygon style="fill:black;stroke:black;" points="186,-143 192.152,-145.333 188.121,-145.121 190.243,-147.243 190.243,-147.243 190.243,-147.243 188.121,-145.121 188.333,-149.152 186,-143 186,-143"/>
<polygon style="fill:black;stroke:black;" points="249,-209 243.143,-206.001 247.126,-206.657 245.252,-204.315 245.252,-204.315 245.252,-204.315 247.126,-206.657 247.36,-202.628 249,-209 249,-209"/>
<text text-anchor="middle" x="189" y="-149.8" style="font-family:Bitstream Vera Sans;font-size:8.00;">*</text>
</g>
<!-- FugeData&#45;&gt;Identifiable -->
<g id="edge39" class="edge"><title>FugeData&#45;&gt;Identifiable</title>
<path style="fill:none;stroke:black;" d="M718,-729C661,-745 525,-782 453,-801"/>
<polygon style="fill:none;stroke:black;" points="451.573,-797.774 443,-804 453.584,-804.479 451.573,-797.774"/>
</g>
<!-- FugeDimensionElement&#45;&gt;Identifiable -->
<g id="edge41" class="edge"><title>FugeDimensionElement&#45;&gt;Identifiable</title>
<path style="fill:none;stroke:black;" d="M603,-740C559,-757 496,-780 452,-796"/>
<polygon style="fill:none;stroke:black;" points="450.717,-792.74 443,-800 453.56,-799.137 450.717,-792.74"/>
</g>
<!-- spook_legend&#45;&gt;spook_main -->
<!-- Identifiable -->
<g id="node2" class="node"><title>Identifiable</title>
<polygon style="fill:#fbb4ae;stroke:black;" points="372,-796 372,-832 443,-832 443,-796 372,-796"/>
<text text-anchor="middle" x="407" y="-820.8" style="font-family:Arial;font-size:8.00;">Identifiable</text>
<polyline style="fill:none;stroke:black;" points="372,-814 443,-814 "/>
<text text-anchor="start" x="379.5" y="-802.8" style="font-family:Arial;font-size:8.00;">name : varchar</text>
</g>
<!-- Describable -->
<g id="node3" class="node"><title>Describable</title>
<polygon style="fill:#fbb4ae;stroke:black;" points="378,-868 378,-904 437,-904 437,-868 378,-868"/>
<text text-anchor="middle" x="407" y="-892.8" style="font-family:Arial;font-size:8.00;">Describable</text>
<polyline style="fill:none;stroke:black;" points="378,-886 437,-886 "/>
<text text-anchor="start" x="385.5" y="-874.8" style="font-family:Arial;font-size:8.00;">id : int</text>
</g>
<!-- Security -->
<g id="node4" class="node"><title>Security</title>
<polygon style="fill:#fbb4ae;stroke:black;" points="197,-597 197,-633 307,-633 307,-597 197,-597"/>
<text text-anchor="middle" x="252" y="-621.8" style="font-family:Arial;font-size:8.00;">Security</text>
<polyline style="fill:none;stroke:black;" points="197,-615 307,-615 "/>
<text text-anchor="start" x="205" y="-603.8" style="font-family:Arial;font-size:8.00;">owners : mref(Contact.id)</text>
</g>
<!-- OntologyTerm -->
<g id="node5" class="node"><title>OntologyTerm</title>
<polygon style="fill:#fbb4ae;stroke:black;" points="325,-587 325,-643 493,-643 493,-587 325,-587"/>
<text text-anchor="middle" x="409" y="-631.8" style="font-family:Arial;font-size:8.00;">OntologyTerm</text>
<polyline style="fill:none;stroke:black;" points="325,-625 493,-625 "/>
<text text-anchor="start" x="333" y="-613.8" style="font-family:Arial;font-size:8.00;">term : varchar</text>
<text text-anchor="start" x="333" y="-603.8" style="font-family:Arial;font-size:8.00;">termAccession : varchar</text>
<text text-anchor="start" x="333" y="-593.8" style="font-family:Arial;font-size:8.00;">ontologySource : xref(OntologySource.id)</text>
</g>
<!-- URI -->
<g id="node6" class="node"><title>URI</title>
<polygon style="fill:#fbb4ae;stroke:black;" points="710,-796 710,-832 793,-832 793,-796 710,-796"/>
<text text-anchor="middle" x="751" y="-820.8" style="font-family:Arial;font-size:8.00;">URI</text>
<polyline style="fill:none;stroke:black;" points="710,-814 793,-814 "/>
<text text-anchor="start" x="717.5" y="-802.8" style="font-family:Arial;font-size:8.00;">location : hyperlink</text>
</g>
<!-- OntologySource -->
<g id="node7" class="node"><title>OntologySource</title>
<polygon style="fill:#fbb4ae;stroke:black;" points="426,-704 426,-740 524,-740 524,-704 426,-704"/>
<text text-anchor="middle" x="475" y="-728.8" style="font-family:Arial;font-size:8.00;">OntologySource</text>
<polyline style="fill:none;stroke:black;" points="426,-722 524,-722 "/>
<text text-anchor="start" x="434" y="-710.8" style="font-family:Arial;font-size:8.00;">ontologyURI : hyperlink</text>
</g>
<!-- Contact -->
<g id="node8" class="node"><title>Contact</title>
<polygon style="fill:#fbb4ae;stroke:black;" points="268,-684 268,-760 368,-760 368,-684 268,-684"/>
<text text-anchor="middle" x="318" y="-748.8" style="font-family:Arial;font-size:8.00;">Contact</text>
<polyline style="fill:none;stroke:black;" points="268,-742 368,-742 "/>
<text text-anchor="start" x="276" y="-730.8" style="font-family:Arial;font-size:8.00;">address : varchar</text>
<text text-anchor="start" x="276" y="-720.8" style="font-family:Arial;font-size:8.00;">phone : varchar</text>
<text text-anchor="start" x="276" y="-710.8" style="font-family:Arial;font-size:8.00;">email : varchar</text>
<text text-anchor="start" x="276" y="-700.8" style="font-family:Arial;font-size:8.00;">fax : varchar</text>
<text text-anchor="start" x="276" y="-690.8" style="font-family:Arial;font-size:8.00;">tollFreePhone : varchar</text>
</g>
<!-- Description -->
<g id="node9" class="node"><title>Description</title>
<polygon style="fill:#fbb4ae;stroke:black;" points="16,-204 16,-250 202,-250 202,-204 16,-204"/>
<text text-anchor="middle" x="109" y="-238.8" style="font-family:Arial;font-size:8.00;">Description</text>
<polyline style="fill:none;stroke:black;" points="16,-232 202,-232 "/>
<text text-anchor="start" x="24" y="-220.8" style="font-family:Arial;font-size:8.00;">text : varchar</text>
<text text-anchor="start" x="24" y="-210.8" style="font-family:Arial;font-size:8.00;">Describable_descriptions : xref(Describable.id)</text>
</g>
<!-- DatabaseReference -->
<g id="node10" class="node"><title>DatabaseReference</title>
<polygon style="fill:#fbb4ae;stroke:black;" points="582,-582 582,-648 753,-648 753,-582 582,-582"/>
<text text-anchor="middle" x="667" y="-636.8" style="font-family:Arial;font-size:8.00;">DatabaseReference</text>
<polyline style="fill:none;stroke:black;" points="582,-630 753,-630 "/>
<text text-anchor="start" x="589.5" y="-618.8" style="font-family:Arial;font-size:8.00;">accession : varchar</text>
<text text-anchor="start" x="589.5" y="-608.8" style="font-family:Arial;font-size:8.00;">accessionVersion : varchar</text>
<text text-anchor="start" x="589.5" y="-598.8" style="font-family:Arial;font-size:8.00;">database_id : xref(Database.id)</text>
<text text-anchor="start" x="589.5" y="-588.8" style="font-family:Arial;font-size:8.00;">IdentifiableReferences : xref(Identifiable.id)</text>
</g>
<!-- Database -->
<g id="node11" class="node"><title>Database</title>
<polygon style="fill:#fbb4ae;stroke:black;" points="76,-699 76,-745 154,-745 154,-699 76,-699"/>
<text text-anchor="middle" x="115" y="-733.8" style="font-family:Arial;font-size:8.00;">Database</text>
<polyline style="fill:none;stroke:black;" points="76,-727 154,-727 "/>
<text text-anchor="start" x="84" y="-715.8" style="font-family:Arial;font-size:8.00;">version : varchar</text>
<text text-anchor="start" x="84" y="-705.8" style="font-family:Arial;font-size:8.00;">dburi : hyperlink</text>
</g>
<!-- FugeProtocolApplication -->
<g id="node12" class="node"><title>FugeProtocolApplication</title>
<polygon style="fill:#fbb4ae;stroke:black;" points="242,-72 242,-158 397,-158 397,-72 242,-72"/>
<text text-anchor="middle" x="319" y="-146.8" style="font-family:Arial;font-size:8.00;">FugeProtocolApplication</text>
<polyline style="fill:none;stroke:black;" points="242,-140 397,-140 "/>
<text text-anchor="start" x="249.5" y="-128.8" style="font-family:Arial;font-size:8.00;">activityDate : datetime</text>
<text text-anchor="start" x="249.5" y="-118.8" style="font-family:Arial;font-size:8.00;">inputData : mref(Data.id)</text>
<text text-anchor="start" x="249.5" y="-108.8" style="font-family:Arial;font-size:8.00;">protocol : xref(Protocol.id)</text>
<text text-anchor="start" x="249.5" y="-98.8" style="font-family:Arial;font-size:8.00;">protocolDeviation : xref(Description.id)</text>
<text text-anchor="start" x="249.5" y="-88.8" style="font-family:Arial;font-size:8.00;">outputMaterials : mref(Material.id)</text>
<text text-anchor="start" x="249.5" y="-78.8" style="font-family:Arial;font-size:8.00;">outputData : mref(Data.id)</text>
</g>
<!-- ParameterizableApplication -->
<g id="node13" class="node"><title>ParameterizableApplication</title>
<polygon style="fill:#fbb4ae;stroke:black;" points="574,-301 574,-337 688,-337 688,-301 574,-301"/>
<text text-anchor="middle" x="631" y="-325.8" style="font-family:Arial;font-size:8.00;">ParameterizableApplication</text>
<polyline style="fill:none;stroke:black;" points="574,-319 688,-319 "/>
<text text-anchor="middle" x="631" y="-307.8" style="font-family:Arial;font-size:8.00;"> </text>
</g>
<!-- Protocol -->
<g id="node14" class="node"><title>Protocol</title>
<polygon style="fill:#fbb4ae;stroke:black;" points="332,-194 332,-260 479,-260 479,-194 332,-194"/>
<text text-anchor="middle" x="405" y="-248.8" style="font-family:Arial;font-size:8.00;">Protocol</text>
<polyline style="fill:none;stroke:black;" points="332,-242 479,-242 "/>
<text text-anchor="start" x="339.5" y="-230.8" style="font-family:Arial;font-size:8.00;">outputTypes : mref(OntologyTerm.id)</text>
<text text-anchor="start" x="339.5" y="-220.8" style="font-family:Arial;font-size:8.00;">inputTypes : mref(OntologyTerm.id)</text>
<text text-anchor="start" x="339.5" y="-210.8" style="font-family:Arial;font-size:8.00;">software : mref(Software.id)</text>
<text text-anchor="start" x="339.5" y="-200.8" style="font-family:Arial;font-size:8.00;">equipment : mref(Equipment.id)</text>
</g>
<!-- Parameterizable -->
<g id="node15" class="node"><title>Parameterizable</title>
<polygon style="fill:#fbb4ae;stroke:black;" points="434,-495 434,-531 557,-531 557,-495 434,-495"/>
<text text-anchor="middle" x="495" y="-519.8" style="font-family:Arial;font-size:8.00;">Parameterizable</text>
<polyline style="fill:none;stroke:black;" points="434,-513 557,-513 "/>
<text text-anchor="start" x="441.5" y="-501.8" style="font-family:Arial;font-size:8.00;">types : mref(OntologyTerm.id)</text>
</g>
<!-- Software -->
<g id="node16" class="node"><title>Software</title>
<polygon style="fill:#fbb4ae;stroke:black;" points="391,-296 391,-342 518,-342 518,-296 391,-296"/>
<text text-anchor="middle" x="454" y="-330.8" style="font-family:Arial;font-size:8.00;">Software</text>
<polyline style="fill:none;stroke:black;" points="391,-324 518,-324 "/>
<text text-anchor="start" x="398.5" y="-312.8" style="font-family:Arial;font-size:8.00;">version : varchar</text>
<text text-anchor="start" x="398.5" y="-302.8" style="font-family:Arial;font-size:8.00;">equipment : mref(Equipment.id)</text>
</g>
<!-- Equipment -->
<g id="node17" class="node"><title>Equipment</title>
<polygon style="fill:#fbb4ae;stroke:black;" points="352,-378 352,-444 498,-444 498,-378 352,-378"/>
<text text-anchor="middle" x="425" y="-432.8" style="font-family:Arial;font-size:8.00;">Equipment</text>
<polyline style="fill:none;stroke:black;" points="352,-426 498,-426 "/>
<text text-anchor="start" x="360" y="-414.8" style="font-family:Arial;font-size:8.00;">make : xref(OntologyTerm.id)</text>
<text text-anchor="start" x="360" y="-404.8" style="font-family:Arial;font-size:8.00;">equipmentParts : mref(Equipment.id)</text>
<text text-anchor="start" x="360" y="-394.8" style="font-family:Arial;font-size:8.00;">software : mref(Software.id)</text>
<text text-anchor="start" x="360" y="-384.8" style="font-family:Arial;font-size:8.00;">model : xref(OntologyTerm.id)</text>
</g>
<!-- FugeInvestigation -->
<g id="node18" class="node"><title>FugeInvestigation</title>
<polygon style="fill:#b3cde3;stroke:black;" points="172,-699 172,-745 251,-745 251,-699 172,-699"/>
<text text-anchor="middle" x="211" y="-733.8" style="font-family:Arial;font-size:8.00;">FugeInvestigation</text>
<polyline style="fill:none;stroke:black;" points="172,-727 251,-727 "/>
<text text-anchor="start" x="179.5" y="-715.8" style="font-family:Arial;font-size:8.00;">start : datetime</text>
<text text-anchor="start" x="179.5" y="-705.8" style="font-family:Arial;font-size:8.00;">end : datetime</text>
</g>
<!-- Material -->
<g id="node19" class="node"><title>Material</title>
<polygon style="fill:#b3cde3;stroke:black;" points="145,-480 145,-546 330,-546 330,-480 145,-480"/>
<text text-anchor="middle" x="237" y="-534.8" style="font-family:Arial;font-size:8.00;">Material</text>
<polyline style="fill:none;stroke:black;" points="145,-528 330,-528 "/>
<text text-anchor="start" x="152.5" y="-516.8" style="font-family:Arial;font-size:8.00;">components : mref(Material.id)</text>
<text text-anchor="start" x="152.5" y="-506.8" style="font-family:Arial;font-size:8.00;">materialType : xref(OntologyTerm.id)</text>
<text text-anchor="start" x="152.5" y="-496.8" style="font-family:Arial;font-size:8.00;">characteristics : mref(OntologyTerm.id)</text>
<text text-anchor="start" x="152.5" y="-486.8" style="font-family:Arial;font-size:8.00;">qualityControlStatistics : mref(OntologyTerm.id)</text>
</g>
<!-- HigherLevelAnalysis -->
<g id="node20" class="node"><title>HigherLevelAnalysis</title>
<polygon style="fill:#b3cde3;stroke:black;" points="92,-87 92,-143 224,-143 224,-87 92,-87"/>
<text text-anchor="middle" x="158" y="-131.8" style="font-family:Arial;font-size:8.00;">HigherLevelAnalysis</text>
<polyline style="fill:none;stroke:black;" points="92,-125 224,-125 "/>
<text text-anchor="start" x="100" y="-113.8" style="font-family:Arial;font-size:8.00;">conclusion : xref(Description.id)</text>
<text text-anchor="start" x="100" y="-103.8" style="font-family:Arial;font-size:8.00;">supportingData : mref(Data.id)</text>
<text text-anchor="start" x="100" y="-93.8" style="font-family:Arial;font-size:8.00;">hypothesis : xref(Description.id)</text>
</g>
<!-- FugeData -->
<g id="node21" class="node"><title>FugeData</title>
<polygon style="fill:#b3cde3;stroke:black;" points="718,-704 718,-740 772,-740 772,-704 718,-704"/>
<text text-anchor="middle" x="745" y="-728.8" style="font-family:Arial;font-size:8.00;">FugeData</text>
<polyline style="fill:none;stroke:black;" points="718,-722 772,-722 "/>
<text text-anchor="middle" x="745" y="-710.8" style="font-family:Arial;font-size:8.00;"> </text>
</g>
<!-- FugeDimensionElement -->
<g id="node22" class="node"><title>FugeDimensionElement</title>
<polygon style="fill:#b3cde3;stroke:black;" points="602,-704 602,-740 701,-740 701,-704 602,-704"/>
<text text-anchor="middle" x="651" y="-728.8" style="font-family:Arial;font-size:8.00;">FugeDimensionElement</text>
<polyline style="fill:none;stroke:black;" points="602,-722 701,-722 "/>
<text text-anchor="middle" x="651" y="-710.8" style="font-family:Arial;font-size:8.00;"> </text>
</g>
<!-- Data -->
<g id="node56" class="node"><title>Data</title>
<polygon style="fill:white;stroke:#808080;" points="240,-209 240,-245 294,-245 294,-209 240,-209"/>
<text text-anchor="middle" x="267" y="-233.8" style="font-family:Arial;font-size:8.00;">Data</text>
</g>
<!-- spook_main -->
<g id="node71" class="node"><title>spook_main</title>
</g>
<!-- spook_legend -->
<g id="node72" class="node"><title>spook_legend</title>
<polygon style="fill:white;stroke:#808080;" points="12,-0 12,-36 78,-36 78,-0 12,-0"/>
<text text-anchor="middle" x="45" y="-24.8" style="font-family:Arial;font-size:8.00;">spook_legend</text>
</g>
</g>
</svg>
