<?xml version="1.0" encoding="UTF-8" standalone="no"?>
<!DOCTYPE svg PUBLIC "-//W3C//DTD SVG 1.0//EN"
 "http://www.w3.org/TR/2001/REC-SVG-20010904/DTD/svg10.dtd" [
 <!ATTLIST svg xmlns:xlink CDATA #FIXED "http://www.w3.org/1999/xlink">
]>
<!-- Generated by Graphviz version 2.20.2 (Mon Mar 30 10:11:53 UTC 2009)
     For user: (jvelde)  -->
<!-- Title: G Pages: 1 -->
<svg width="842pt" height="908pt"
 viewBox="0.00 0.00 842.00 908.00" xmlns="http://www.w3.org/2000/svg" xmlns:xlink="http://www.w3.org/1999/xlink">
<g id="graph0" class="graph" transform="scale(1 1) rotate(0) translate(4 904)">
<title>G</title>
<polygon style="fill:white;stroke:white;" points="-4,4 -4,-904 838,-904 838,4 -4,4"/>
<g id="cluster2" class="cluster"><title>cluster_legend</title>
<polygon style="fill:none;stroke:white;" points="120,-16 120,-86 642,-86 642,-16 120,-16"/>
<text text-anchor="middle" x="381" y="-22.8" style="font-family:Bitstream Vera Sans;font-size:8.00;">module legend</text>
</g>
<g id="cluster3" class="cluster"><title>cluster_main</title>
<polygon style="fill:white;stroke:black;" points="8,-98 8,-892 826,-892 826,-98 8,-98"/>
</g>
<!-- spook_legend&#45;&gt;spook_main -->
<!-- OntologySource&#45;&gt;Identifiable -->
<g id="edge4" class="edge"><title>OntologySource&#45;&gt;Identifiable</title>
<path style="fill:none;stroke:grey;" d="M272,-812C260,-822 246,-832 233,-842"/>
<polygon style="fill:none;stroke:grey;" points="230.9,-839.2 225,-848 235.1,-844.8 230.9,-839.2"/>
</g>
<!-- OntologySource&#45;&gt;Nameable -->
<g id="edge6" class="edge"><title>OntologySource&#45;&gt;Nameable</title>
<path style="fill:none;stroke:grey;" d="M358,-796C423,-812 540,-840 604,-856"/>
<polygon style="fill:none;stroke:grey;" points="603.508,-859.471 614,-858 604.881,-852.607 603.508,-859.471"/>
</g>
<!-- OntologyTerm&#45;&gt;Identifiable -->
<g id="edge8" class="edge"><title>OntologyTerm&#45;&gt;Identifiable</title>
<path style="fill:none;stroke:grey;" d="M314,-720C286,-756 245,-808 221,-840"/>
<polygon style="fill:none;stroke:grey;" points="218.2,-837.9 215,-848 223.8,-842.1 218.2,-837.9"/>
</g>
<!-- OntologyTerm&#45;&gt;OntologySource -->
<g id="edge52" class="edge"><title>OntologyTerm&#45;&gt;OntologySource</title>
<path style="fill:none;stroke:black;" d="M330,-720C327,-729 324,-738 321,-746"/>
<polygon style="fill:black;stroke:black;" points="318,-756 316.563,-745.129 319.437,-751.211 320.874,-746.422 320.874,-746.422 320.874,-746.422 319.437,-751.211 325.184,-747.715 318,-756 318,-756"/>
<text text-anchor="middle" x="323" y="-724.8" style="font-family:Bitstream Vera Sans;font-size:8.00;">*</text>
</g>
<!-- Investigation&#45;&gt;Identifiable -->
<g id="edge10" class="edge"><title>Investigation&#45;&gt;Identifiable</title>
<path style="fill:none;stroke:grey;" d="M682,-791C577,-807 332,-846 238,-860"/>
<polygon style="fill:none;stroke:grey;" points="237.119,-856.607 228,-862 238.492,-863.471 237.119,-856.607"/>
</g>
<!-- Investigation&#45;&gt;Nameable -->
<g id="edge12" class="edge"><title>Investigation&#45;&gt;Nameable</title>
<path style="fill:none;stroke:grey;" d="M702,-812C693,-821 683,-832 674,-841"/>
<polygon style="fill:none;stroke:grey;" points="671.596,-838.454 667,-848 676.546,-843.404 671.596,-838.454"/>
</g>
<!-- ObservableFeature&#45;&gt;Identifiable -->
<g id="edge14" class="edge"><title>ObservableFeature&#45;&gt;Identifiable</title>
<path style="fill:none;stroke:grey;" d="M353,-598C321,-655 248,-783 216,-839"/>
<polygon style="fill:none;stroke:grey;" points="212.797,-837.559 211,-848 218.916,-840.958 212.797,-837.559"/>
</g>
<!-- ObservableFeature&#45;&gt;Nameable -->
<g id="edge16" class="edge"><title>ObservableFeature&#45;&gt;Nameable</title>
<path style="fill:none;stroke:grey;" d="M396,-598C449,-655 573,-785 625,-840"/>
<polygon style="fill:none;stroke:grey;" points="622.781,-842.779 632,-848 628.049,-838.169 622.781,-842.779"/>
</g>
<!-- ObservableFeature&#45;&gt;OntologyTerm -->
<g id="edge54" class="edge"><title>ObservableFeature&#45;&gt;OntologyTerm</title>
<path style="fill:none;stroke:black;" d="M362,-598C360,-609 357,-622 354,-634"/>
<polygon style="fill:black;stroke:black;" points="352,-644 349.549,-633.312 352.981,-639.097 353.961,-634.194 353.961,-634.194 353.961,-634.194 352.981,-639.097 358.374,-635.077 352,-644 352,-644"/>
<text text-anchor="middle" x="356" y="-603.8" style="font-family:Bitstream Vera Sans;font-size:8.00;">*</text>
</g>
<!-- ObservedValue&#45;&gt;Identifiable -->
<g id="edge18" class="edge"><title>ObservedValue&#45;&gt;Identifiable</title>
<path style="fill:none;stroke:grey;" d="M384,-282C345,-407 241,-740 210,-838"/>
<polygon style="fill:none;stroke:grey;" points="206.521,-837.416 207,-848 213.226,-839.427 206.521,-837.416"/>
</g>
<!-- ObservedValue&#45;&gt;Investigation -->
<g id="edge56" class="edge"><title>ObservedValue&#45;&gt;Investigation</title>
<path style="fill:none;stroke:black;" d="M428,-282C493,-390 650,-650 708,-747"/>
<polygon style="fill:black;stroke:black;" points="713,-756 704.21,-749.444 710.572,-751.629 708.144,-747.258 708.144,-747.258 708.144,-747.258 710.572,-751.629 712.077,-745.073 713,-756 713,-756"/>
<text text-anchor="middle" x="429" y="-289.8" style="font-family:Bitstream Vera Sans;font-size:8.00;">*</text>
</g>
<!-- ObservedValue&#45;&gt;ObservableFeature -->
<g id="edge60" class="edge"><title>ObservedValue&#45;&gt;ObservableFeature</title>
<path style="fill:none;stroke:black;" d="M395,-282C388,-349 378,-470 372,-532"/>
<polygon style="fill:black;stroke:black;" points="371,-542 367.517,-531.602 371.498,-537.025 371.995,-532.05 371.995,-532.05 371.995,-532.05 371.498,-537.025 376.473,-532.497 371,-542 371,-542"/>
<text text-anchor="middle" x="390" y="-288.8" style="font-family:Bitstream Vera Sans;font-size:8.00;">*</text>
</g>
<!-- ObservedValue&#45;&gt;ObservationTarget -->
<g id="edge58" class="edge"><title>ObservedValue&#45;&gt;ObservationTarget</title>
<path style="fill:none;stroke:black;" d="M424,-282C471,-372 569,-563 611,-645"/>
<polygon style="fill:black;stroke:black;" points="616,-654 607.21,-647.444 613.572,-649.629 611.144,-645.258 611.144,-645.258 611.144,-645.258 613.572,-649.629 615.077,-643.073 616,-654 616,-654"/>
<text text-anchor="middle" x="424" y="-289.8" style="font-family:Bitstream Vera Sans;font-size:8.00;">*</text>
</g>
<!-- ObservedValue&#45;&gt;ProtocolApplication -->
<g id="edge62" class="edge"><title>ObservedValue&#45;&gt;ProtocolApplication</title>
<path style="fill:none;stroke:black;" d="M363,-282C356,-291 349,-300 343,-310"/>
<polygon style="fill:black;stroke:black;" points="337,-318 339.4,-307.3 340,-314 343,-310 343,-310 343,-310 340,-314 346.6,-312.7 337,-318 337,-318"/>
<text text-anchor="middle" x="354" y="-284.8" style="font-family:Bitstream Vera Sans;font-size:8.00;">*</text>
</g>
<!-- InferredValue&#45;&gt;ObservedValue -->
<g id="edge44" class="edge"><title>InferredValue&#45;&gt;ObservedValue</title>
<path style="fill:none;stroke:black;" d="M394,-150C393,-157 393,-166 392,-176"/>
<polygon style="fill:none;stroke:black;" points="388.5,-176 392,-186 395.5,-176 388.5,-176"/>
</g>
<!-- InferredValue&#45;&gt;ObservedValue -->
<g id="edge88" class="edge"><title>InferredValue&#45;&gt;ObservedValue</title>
<path style="fill:none;stroke:black;" d="M405,-156C405,-163 406,-172 406,-180"/>
<polygon style="fill:black;stroke:black;" points="404,-150 407.65,-155.474 404.493,-152.959 404.986,-155.918 404.986,-155.918 404.986,-155.918 404.493,-152.959 402.323,-156.362 404,-150 404,-150"/>
<polygon style="fill:black;stroke:black;" points="406,-186 403.3,-180 406,-183 406,-180 406,-180 406,-180 406,-183 408.7,-180 406,-186 406,-186"/>
<text text-anchor="middle" x="401" y="-157.8" style="font-family:Bitstream Vera Sans;font-size:8.00;">*</text>
</g>
<!-- ObservationTarget&#45;&gt;Identifiable -->
<g id="edge20" class="edge"><title>ObservationTarget&#45;&gt;Identifiable</title>
<path style="fill:none;stroke:grey;" d="M582,-703C495,-740 315,-817 237,-850"/>
<polygon style="fill:none;stroke:grey;" points="235.717,-846.74 228,-854 238.56,-853.137 235.717,-846.74"/>
</g>
<!-- ObservationTarget&#45;&gt;Nameable -->
<g id="edge22" class="edge"><title>ObservationTarget&#45;&gt;Nameable</title>
<path style="fill:none;stroke:grey;" d="M633,-710C637,-745 643,-803 646,-838"/>
<polygon style="fill:none;stroke:grey;" points="642.522,-838.398 647,-848 649.488,-837.701 642.522,-838.398"/>
</g>
<!-- Individual&#45;&gt;OntologyTerm -->
<g id="edge64" class="edge"><title>Individual&#45;&gt;OntologyTerm</title>
<path style="fill:none;stroke:black;" d="M512,-601C487,-614 457,-628 429,-641"/>
<polygon style="fill:black;stroke:black;" points="420,-645 427.31,-636.826 424.569,-642.969 429.138,-640.939 429.138,-640.939 429.138,-640.939 424.569,-642.969 430.966,-645.051 420,-645 420,-645"/>
<text text-anchor="middle" x="502" y="-598.8" style="font-family:Bitstream Vera Sans;font-size:8.00;">*</text>
</g>
<!-- Individual&#45;&gt;ObservationTarget -->
<g id="edge46" class="edge"><title>Individual&#45;&gt;ObservationTarget</title>
<path style="fill:none;stroke:black;" d="M593,-603C599,-616 606,-631 612,-645"/>
<polygon style="fill:none;stroke:black;" points="609.084,-646.958 617,-654 615.203,-643.559 609.084,-646.958"/>
</g>
<!-- Individual&#45;&gt;Individual -->
<g id="edge66" class="edge"><title>Individual&#45;&gt;Individual</title>
<path style="fill:none;stroke:black;" d="M642,-561C653,-562 660,-565 660,-570 660,-573 657,-576 652,-577"/>
<polygon style="fill:black;stroke:black;" points="642,-579 650.923,-572.626 646.903,-578.019 651.806,-577.039 651.806,-577.039 651.806,-577.039 646.903,-578.019 652.688,-581.451 642,-579 642,-579"/>
<text text-anchor="middle" x="651" y="-563.8" style="font-family:Bitstream Vera Sans;font-size:8.00;">*</text>
</g>
<!-- Individual&#45;&gt;Individual -->
<g id="edge68" class="edge"><title>Individual&#45;&gt;Individual</title>
<path style="fill:none;stroke:black;" d="M642,-551C662,-551 678,-558 678,-570 678,-580 667,-586 652,-588"/>
<polygon style="fill:black;stroke:black;" points="642,-589 651.503,-583.527 646.975,-588.502 651.95,-588.005 651.95,-588.005 651.95,-588.005 646.975,-588.502 652.398,-592.483 642,-589 642,-589"/>
<text text-anchor="middle" x="651" y="-553.8" style="font-family:Bitstream Vera Sans;font-size:8.00;">*</text>
</g>
<!-- Panel&#45;&gt;ObservationTarget -->
<g id="edge48" class="edge"><title>Panel&#45;&gt;ObservationTarget</title>
<path style="fill:none;stroke:black;" d="M616,-481C619,-517 624,-596 627,-644"/>
<polygon style="fill:none;stroke:black;" points="623.522,-644.398 628,-654 630.488,-643.701 623.522,-644.398"/>
</g>
<!-- Panel&#45;&gt;Individual -->
<g id="edge90" class="edge"><title>Panel&#45;&gt;Individual</title>
<path style="fill:none;stroke:black;" d="M607,-487C603,-499 597,-516 591,-531"/>
<polygon style="fill:black;stroke:black;" points="609,-481 609.664,-487.546 608.051,-483.846 607.103,-486.692 607.103,-486.692 607.103,-486.692 608.051,-483.846 604.541,-485.838 609,-481 609,-481"/>
<polygon style="fill:black;stroke:black;" points="589,-537 588.336,-530.454 589.949,-534.154 590.897,-531.308 590.897,-531.308 590.897,-531.308 589.949,-534.154 593.459,-532.162 589,-537 589,-537"/>
<text text-anchor="middle" x="602" y="-485.8" style="font-family:Bitstream Vera Sans;font-size:8.00;">*</text>
</g>
<!-- VariableDefinition&#45;&gt;OntologyTerm -->
<g id="edge70" class="edge"><title>VariableDefinition&#45;&gt;OntologyTerm</title>
<path style="fill:none;stroke:black;" d="M461,-486C439,-521 398,-589 371,-635"/>
<polygon style="fill:black;stroke:black;" points="366,-644 366.923,-633.073 368.428,-639.629 370.856,-635.258 370.856,-635.258 370.856,-635.258 368.428,-639.629 374.79,-637.444 366,-644 366,-644"/>
<text text-anchor="middle" x="453" y="-488.8" style="font-family:Bitstream Vera Sans;font-size:8.00;">*</text>
</g>
<!-- VariableDefinition&#45;&gt;ObservableFeature -->
<g id="edge50" class="edge"><title>VariableDefinition&#45;&gt;ObservableFeature</title>
<path style="fill:none;stroke:black;" d="M452,-486C438,-501 420,-519 404,-535"/>
<polygon style="fill:none;stroke:black;" points="401.596,-532.454 397,-542 406.546,-537.404 401.596,-532.454"/>
</g>
<!-- VariableDefinition&#45;&gt;CodeList -->
<g id="edge72" class="edge"><title>VariableDefinition&#45;&gt;CodeList</title>
<path style="fill:none;stroke:black;" d="M471,-486C462,-541 441,-678 431,-746"/>
<polygon style="fill:black;stroke:black;" points="429,-756 426.549,-745.312 429.981,-751.097 430.961,-746.194 430.961,-746.194 430.961,-746.194 429.981,-751.097 435.374,-747.077 429,-756 429,-756"/>
<text text-anchor="middle" x="465" y="-491.8" style="font-family:Bitstream Vera Sans;font-size:8.00;">*</text>
</g>
<!-- CodeList&#45;&gt;Identifiable -->
<g id="edge24" class="edge"><title>CodeList&#45;&gt;Identifiable</title>
<path style="fill:none;stroke:grey;" d="M376,-802C335,-817 276,-839 238,-853"/>
<polygon style="fill:none;stroke:grey;" points="236.573,-849.774 228,-856 238.584,-856.479 236.573,-849.774"/>
</g>
<!-- CodeList&#45;&gt;Nameable -->
<g id="edge26" class="edge"><title>CodeList&#45;&gt;Nameable</title>
<path style="fill:none;stroke:grey;" d="M472,-802C511,-816 566,-836 604,-850"/>
<polygon style="fill:none;stroke:grey;" points="603.416,-853.479 614,-853 605.427,-846.774 603.416,-853.479"/>
</g>
<!-- Code&#45;&gt;Identifiable -->
<g id="edge28" class="edge"><title>Code&#45;&gt;Identifiable</title>
<path style="fill:none;stroke:grey;" d="M192,-608C194,-668 198,-784 200,-838"/>
<polygon style="fill:none;stroke:grey;" points="196.5,-838 200,-848 203.5,-838 196.5,-838"/>
</g>
<!-- Code&#45;&gt;OntologyTerm -->
<g id="edge76" class="edge"><title>Code&#45;&gt;OntologyTerm</title>
<path style="fill:none;stroke:black;" d="M243,-608C256,-618 270,-628 283,-638"/>
<polygon style="fill:black;stroke:black;" points="291,-644 280.3,-641.6 287,-641 283,-638 283,-638 283,-638 287,-641 285.7,-634.4 291,-644 291,-644"/>
<text text-anchor="middle" x="248" y="-614.8" style="font-family:Bitstream Vera Sans;font-size:8.00;">*</text>
</g>
<!-- Code&#45;&gt;CodeList -->
<g id="edge74" class="edge"><title>Code&#45;&gt;CodeList</title>
<path style="fill:none;stroke:black;" d="M232,-608C275,-648 343,-710 385,-749"/>
<polygon style="fill:black;stroke:black;" points="393,-756 382.511,-752.802 389.237,-752.707 385.474,-749.415 385.474,-749.415 385.474,-749.415 389.237,-752.707 388.437,-746.028 393,-756 393,-756"/>
<text text-anchor="middle" x="236" y="-614.8" style="font-family:Bitstream Vera Sans;font-size:8.00;">*</text>
</g>
<!-- Protocol&#45;&gt;Identifiable -->
<g id="edge30" class="edge"><title>Protocol&#45;&gt;Identifiable</title>
<path style="fill:none;stroke:grey;" d="M259,-496C247,-574 217,-765 206,-838"/>
<polygon style="fill:none;stroke:grey;" points="202.529,-837.508 204,-848 209.393,-838.881 202.529,-837.508"/>
</g>
<!-- Protocol&#45;&gt;Nameable -->
<g id="edge32" class="edge"><title>Protocol&#45;&gt;Nameable</title>
<path style="fill:none;stroke:grey;" d="M296,-496C371,-575 557,-770 625,-840"/>
<polygon style="fill:none;stroke:grey;" points="622.781,-842.779 632,-848 628.049,-838.169 622.781,-842.779"/>
</g>
<!-- Protocol&#45;&gt;ObservableFeature -->
<g id="edge92" class="edge"><title>Protocol&#45;&gt;ObservableFeature</title>
<path style="fill:none;stroke:black;" d="M301,-501C313,-513 325,-526 337,-538"/>
<polygon style="fill:black;stroke:black;" points="297,-496 302.857,-498.999 298.874,-498.343 300.748,-500.685 300.748,-500.685 300.748,-500.685 298.874,-498.343 298.64,-502.372 297,-496 297,-496"/>
<polygon style="fill:black;stroke:black;" points="341,-542 334.848,-539.667 338.879,-539.879 336.757,-537.757 336.757,-537.757 336.757,-537.757 338.879,-539.879 338.667,-535.848 341,-542 341,-542"/>
<text text-anchor="middle" x="299" y="-503.8" style="font-family:Bitstream Vera Sans;font-size:8.00;">*</text>
</g>
<!-- Protocol&#45;&gt;Protocol -->
<g id="edge94" class="edge"><title>Protocol&#45;&gt;Protocol</title>
<path style="fill:none;stroke:black;" d="M368,-449C375,-452 380,-456 380,-463 380,-469 375,-474 368,-477"/>
<polygon style="fill:black;stroke:black;" points="362,-447 368.546,-446.336 364.846,-447.949 367.692,-448.897 367.692,-448.897 367.692,-448.897 364.846,-447.949 366.838,-451.459 362,-447 362,-447"/>
<polygon style="fill:black;stroke:black;" points="362,-479 366.838,-474.541 364.846,-478.051 367.692,-477.103 367.692,-477.103 367.692,-477.103 364.846,-478.051 368.546,-479.664 362,-479 362,-479"/>
<text text-anchor="middle" x="369" y="-451.8" style="font-family:Bitstream Vera Sans;font-size:8.00;">*</text>
</g>
<!-- ProtocolApplication&#45;&gt;Identifiable -->
<g id="edge34" class="edge"><title>ProtocolApplication&#45;&gt;Identifiable</title>
<path style="fill:none;stroke:grey;" d="M301,-394C280,-493 226,-752 207,-838"/>
<polygon style="fill:none;stroke:grey;" points="203.529,-837.508 205,-848 210.393,-838.881 203.529,-837.508"/>
</g>
<!-- ProtocolApplication&#45;&gt;Nameable -->
<g id="edge36" class="edge"><title>ProtocolApplication&#45;&gt;Nameable</title>
<path style="fill:none;stroke:grey;" d="M335,-394C401,-493 575,-755 631,-839"/>
<polygon style="fill:none;stroke:grey;" points="628.541,-841.621 637,-848 634.365,-837.738 628.541,-841.621"/>
</g>
<!-- ProtocolApplication&#45;&gt;Investigation -->
<g id="edge80" class="edge"><title>ProtocolApplication&#45;&gt;Investigation</title>
<path style="fill:none;stroke:black;" d="M347,-394C427,-476 617,-668 695,-749"/>
<polygon style="fill:black;stroke:black;" points="702,-756 691.747,-752.111 698.464,-752.464 694.929,-748.929 694.929,-748.929 694.929,-748.929 698.464,-752.464 698.111,-745.747 702,-756 702,-756"/>
<text text-anchor="middle" x="350" y="-400.8" style="font-family:Bitstream Vera Sans;font-size:8.00;">*</text>
</g>
<!-- ProtocolApplication&#45;&gt;Protocol -->
<g id="edge78" class="edge"><title>ProtocolApplication&#45;&gt;Protocol</title>
<path style="fill:none;stroke:black;" d="M293,-394C289,-403 286,-412 282,-421"/>
<polygon style="fill:black;stroke:black;" points="278,-430 277.949,-419.034 280.031,-425.431 282.061,-420.862 282.061,-420.862 282.061,-420.862 280.031,-425.431 286.174,-422.69 278,-430 278,-430"/>
<text text-anchor="middle" x="286" y="-398.8" style="font-family:Bitstream Vera Sans;font-size:8.00;">*</text>
</g>
<!-- ProtocolParameter&#45;&gt;Identifiable -->
<g id="edge38" class="edge"><title>ProtocolParameter&#45;&gt;Identifiable</title>
<path style="fill:none;stroke:grey;" d="M167,-384C174,-473 192,-749 199,-838"/>
<polygon style="fill:none;stroke:grey;" points="195.522,-838.398 200,-848 202.488,-837.701 195.522,-838.398"/>
</g>
<!-- ProtocolParameter&#45;&gt;Nameable -->
<g id="edge40" class="edge"><title>ProtocolParameter&#45;&gt;Nameable</title>
<path style="fill:none;stroke:grey;" d="M192,-384C277,-474 543,-754 625,-841"/>
<polygon style="fill:none;stroke:grey;" points="622.454,-843.404 632,-848 627.404,-838.454 622.454,-843.404"/>
</g>
<!-- ProtocolParameter&#45;&gt;Protocol -->
<g id="edge82" class="edge"><title>ProtocolParameter&#45;&gt;Protocol</title>
<path style="fill:none;stroke:black;" d="M191,-384C202,-396 215,-410 226,-422"/>
<polygon style="fill:black;stroke:black;" points="233,-430 223.028,-425.437 229.707,-426.237 226.415,-422.474 226.415,-422.474 226.415,-422.474 229.707,-426.237 229.802,-419.511 233,-430 233,-430"/>
<text text-anchor="middle" x="194" y="-391.8" style="font-family:Bitstream Vera Sans;font-size:8.00;">*</text>
</g>
<!-- ParameterValue&#45;&gt;Identifiable -->
<g id="edge42" class="edge"><title>ParameterValue&#45;&gt;Identifiable</title>
<path style="fill:none;stroke:grey;" d="M167,-267C173,-378 193,-735 199,-838"/>
<polygon style="fill:none;stroke:grey;" points="195.522,-838.398 200,-848 202.488,-837.701 195.522,-838.398"/>
</g>
<!-- ParameterValue&#45;&gt;ProtocolApplication -->
<g id="edge84" class="edge"><title>ParameterValue&#45;&gt;ProtocolApplication</title>
<path style="fill:none;stroke:black;" d="M204,-267C220,-281 239,-297 256,-311"/>
<polygon style="fill:black;stroke:black;" points="264,-318 253.511,-314.802 260.237,-314.707 256.474,-311.415 256.474,-311.415 256.474,-311.415 260.237,-314.707 259.437,-308.028 264,-318 264,-318"/>
<text text-anchor="middle" x="208" y="-273.8" style="font-family:Bitstream Vera Sans;font-size:8.00;">*</text>
</g>
<!-- ParameterValue&#45;&gt;ProtocolParameter -->
<g id="edge86" class="edge"><title>ParameterValue&#45;&gt;ProtocolParameter</title>
<path style="fill:none;stroke:black;" d="M165,-267C165,-283 165,-302 165,-318"/>
<polygon style="fill:black;stroke:black;" points="165,-328 160.5,-318 165,-323 165,-318 165,-318 165,-318 165,-323 169.5,-318 165,-328 165,-328"/>
<text text-anchor="middle" x="161" y="-273.8" style="font-family:Bitstream Vera Sans;font-size:8.00;">*</text>
</g>
<!-- pheno.system -->
<g id="node2" class="node"><title>pheno.system</title>
<polygon style="fill:#fbb4ae;stroke:black;" points="568,-42 568,-78 635,-78 635,-42 568,-42"/>
<text text-anchor="middle" x="601" y="-66.8" style="font-family:Arial;font-size:8.00;">pheno.system</text>
</g>
<!-- pheno.observation -->
<g id="node3" class="node"><title>pheno.observation</title>
<polygon style="fill:#b3cde3;stroke:black;" points="466,-42 466,-78 550,-78 550,-42 466,-42"/>
<text text-anchor="middle" x="508" y="-66.8" style="font-family:Arial;font-size:8.00;">pheno.observation</text>
</g>
<!-- pheno.target -->
<g id="node4" class="node"><title>pheno.target</title>
<polygon style="fill:#ccebc5;stroke:black;" points="386,-42 386,-78 448,-78 448,-42 386,-42"/>
<text text-anchor="middle" x="417" y="-66.8" style="font-family:Arial;font-size:8.00;">pheno.target</text>
</g>
<!-- pheno.variable -->
<g id="node5" class="node"><title>pheno.variable</title>
<polygon style="fill:#decbe4;stroke:black;" points="300,-42 300,-78 369,-78 369,-42 300,-42"/>
<text text-anchor="middle" x="334" y="-66.8" style="font-family:Arial;font-size:8.00;">pheno.variable</text>
</g>
<!-- pheno.protocol -->
<g id="node6" class="node"><title>pheno.protocol</title>
<polygon style="fill:#fed9a6;stroke:black;" points="212,-42 212,-78 282,-78 282,-42 212,-42"/>
<text text-anchor="middle" x="247" y="-66.8" style="font-family:Arial;font-size:8.00;">pheno.protocol</text>
</g>
<!-- spook_legend -->
<g id="node7" class="node"><title>spook_legend</title>
</g>
<!-- Identifiable -->
<g id="node9" class="node"><title>Identifiable</title>
<polygon style="fill:#fbb4ae;stroke:black;" points="174,-848 174,-884 228,-884 228,-848 174,-848"/>
<text text-anchor="middle" x="201" y="-872.8" style="font-family:Arial;font-size:8.00;">Identifiable</text>
<polyline style="fill:none;stroke:black;" points="174,-866 228,-866 "/>
<text text-anchor="start" x="182" y="-854.8" style="font-family:Arial;font-size:8.00;">id : int</text>
</g>
<!-- Nameable -->
<g id="node10" class="node"><title>Nameable</title>
<polygon style="fill:#fbb4ae;stroke:black;" points="614,-848 614,-884 685,-884 685,-848 614,-848"/>
<text text-anchor="middle" x="649" y="-872.8" style="font-family:Arial;font-size:8.00;">Nameable</text>
<polyline style="fill:none;stroke:black;" points="614,-866 685,-866 "/>
<text text-anchor="start" x="621.5" y="-854.8" style="font-family:Arial;font-size:8.00;">name : varchar</text>
</g>
<!-- OntologySource -->
<g id="node11" class="node"><title>OntologySource</title>
<polygon style="fill:#fbb4ae;stroke:black;" points="260,-756 260,-812 358,-812 358,-756 260,-756"/>
<text text-anchor="middle" x="309" y="-800.8" style="font-family:Arial;font-size:8.00;">OntologySource</text>
<text text-anchor="middle" x="309" y="-790.8" style="font-family:Arial;font-size:8.00;">implements Identifiable</text>
<text text-anchor="middle" x="309" y="-780.8" style="font-family:Arial;font-size:8.00;">implements Nameable</text>
<polyline style="fill:none;stroke:black;" points="260,-774 358,-774 "/>
<text text-anchor="start" x="268" y="-762.8" style="font-family:Arial;font-size:8.00;">ontologyURI : hyperlink</text>
</g>
<!-- OntologyTerm -->
<g id="node12" class="node"><title>OntologyTerm</title>
<polygon style="fill:#fbb4ae;stroke:black;" points="267,-644 267,-720 420,-720 420,-644 267,-644"/>
<text text-anchor="middle" x="343" y="-708.8" style="font-family:Arial;font-size:8.00;">OntologyTerm</text>
<text text-anchor="middle" x="343" y="-698.8" style="font-family:Arial;font-size:8.00;">implements Identifiable</text>
<polyline style="fill:none;stroke:black;" points="267,-692 420,-692 "/>
<text text-anchor="start" x="274.5" y="-680.8" style="font-family:Arial;font-size:8.00;">term : varchar</text>
<text text-anchor="start" x="274.5" y="-670.8" style="font-family:Arial;font-size:8.00;">termLabel : string</text>
<text text-anchor="start" x="274.5" y="-660.8" style="font-family:Arial;font-size:8.00;">termSource : xref(OntologySource.id)</text>
<text text-anchor="start" x="274.5" y="-650.8" style="font-family:Arial;font-size:8.00;">termAccession : varchar</text>
</g>
<!-- Investigation -->
<g id="node13" class="node"><title>Investigation</title>
<polygon style="fill:#b3cde3;stroke:black;" points="682,-756 682,-812 778,-812 778,-756 682,-756"/>
<text text-anchor="middle" x="730" y="-800.8" style="font-family:Arial;font-size:8.00;">Investigation</text>
<text text-anchor="middle" x="730" y="-790.8" style="font-family:Arial;font-size:8.00;">implements Identifiable</text>
<text text-anchor="middle" x="730" y="-780.8" style="font-family:Arial;font-size:8.00;">implements Nameable</text>
<polyline style="fill:none;stroke:black;" points="682,-774 778,-774 "/>
<text text-anchor="middle" x="730" y="-762.8" style="font-family:Arial;font-size:8.00;"> </text>
</g>
<!-- ObservableFeature -->
<g id="node14" class="node"><title>ObservableFeature</title>
<polygon style="fill:#b3cde3;stroke:black;" points="284,-542 284,-598 455,-598 455,-542 284,-542"/>
<text text-anchor="middle" x="369" y="-586.8" style="font-family:Arial;font-size:8.00;">ObservableFeature</text>
<text text-anchor="middle" x="369" y="-576.8" style="font-family:Arial;font-size:8.00;">implements Identifiable</text>
<text text-anchor="middle" x="369" y="-566.8" style="font-family:Arial;font-size:8.00;">implements Nameable</text>
<polyline style="fill:none;stroke:black;" points="284,-560 455,-560 "/>
<text text-anchor="start" x="291.5" y="-548.8" style="font-family:Arial;font-size:8.00;">ontologyReference : xref(OntologyTerm.id)</text>
</g>
<!-- ObservedValue -->
<g id="node15" class="node"><title>ObservedValue</title>
<polygon style="fill:#b3cde3;stroke:black;" points="304,-186 304,-282 494,-282 494,-186 304,-186"/>
<text text-anchor="middle" x="399" y="-270.8" style="font-family:Arial;font-size:8.00;">ObservedValue</text>
<text text-anchor="middle" x="399" y="-260.8" style="font-family:Arial;font-size:8.00;">implements Identifiable</text>
<polyline style="fill:none;stroke:black;" points="304,-254 494,-254 "/>
<text text-anchor="start" x="312" y="-242.8" style="font-family:Arial;font-size:8.00;">investigation : xref(Investigation.id)</text>
<text text-anchor="start" x="312" y="-232.8" style="font-family:Arial;font-size:8.00;">time : datetime</text>
<text text-anchor="start" x="312" y="-222.8" style="font-family:Arial;font-size:8.00;">observationTarget : xref(ObservationTarget.id)</text>
<text text-anchor="start" x="312" y="-212.8" style="font-family:Arial;font-size:8.00;">observableFeature : xref(ObservableFeature.id)</text>
<text text-anchor="start" x="312" y="-202.8" style="font-family:Arial;font-size:8.00;">value : </text>
<text text-anchor="start" x="312" y="-192.8" style="font-family:Arial;font-size:8.00;">protocolApplication : xref(ProtocolApplication.id)</text>
</g>
<!-- InferredValue -->
<g id="node16" class="node"><title>InferredValue</title>
<polygon style="fill:#b3cde3;stroke:black;" points="322,-114 322,-150 477,-150 477,-114 322,-114"/>
<text text-anchor="middle" x="399" y="-138.8" style="font-family:Arial;font-size:8.00;">InferredValue</text>
<polyline style="fill:none;stroke:black;" points="322,-132 477,-132 "/>
<text text-anchor="start" x="329.5" y="-120.8" style="font-family:Arial;font-size:8.00;">derivedFrom : mref(ObservedValue.id)</text>
</g>
<!-- ObservationTarget -->
<g id="node17" class="node"><title>ObservationTarget</title>
<polygon style="fill:#b3cde3;stroke:black;" points="582,-654 582,-710 678,-710 678,-654 582,-654"/>
<text text-anchor="middle" x="630" y="-698.8" style="font-family:Arial;font-size:8.00;">ObservationTarget</text>
<text text-anchor="middle" x="630" y="-688.8" style="font-family:Arial;font-size:8.00;">implements Identifiable</text>
<text text-anchor="middle" x="630" y="-678.8" style="font-family:Arial;font-size:8.00;">implements Nameable</text>
<polyline style="fill:none;stroke:black;" points="582,-672 678,-672 "/>
<text text-anchor="middle" x="630" y="-660.8" style="font-family:Arial;font-size:8.00;"> </text>
</g>
<!-- Individual -->
<g id="node18" class="node"><title>Individual</title>
<polygon style="fill:#ccebc5;stroke:black;" points="512,-537 512,-603 642,-603 642,-537 512,-537"/>
<text text-anchor="middle" x="577" y="-591.8" style="font-family:Arial;font-size:8.00;">Individual</text>
<polyline style="fill:none;stroke:black;" points="512,-585 642,-585 "/>
<text text-anchor="start" x="520" y="-573.8" style="font-family:Arial;font-size:8.00;">species : xref(OntologyTerm.id)</text>
<text text-anchor="start" x="520" y="-563.8" style="font-family:Arial;font-size:8.00;">sex : enum</text>
<text text-anchor="start" x="520" y="-553.8" style="font-family:Arial;font-size:8.00;">mother : xref(Individual.id)</text>
<text text-anchor="start" x="520" y="-543.8" style="font-family:Arial;font-size:8.00;">father : xref(Individual.id)</text>
</g>
<!-- Panel -->
<g id="node19" class="node"><title>Panel</title>
<polygon style="fill:#ccebc5;stroke:black;" points="553,-445 553,-481 677,-481 677,-445 553,-445"/>
<text text-anchor="middle" x="615" y="-469.8" style="font-family:Arial;font-size:8.00;">Panel</text>
<polyline style="fill:none;stroke:black;" points="553,-463 677,-463 "/>
<text text-anchor="start" x="561" y="-451.8" style="font-family:Arial;font-size:8.00;">individuals : mref(Individual.id)</text>
</g>
<!-- VariableDefinition -->
<g id="node20" class="node"><title>VariableDefinition</title>
<polygon style="fill:#decbe4;stroke:black;" points="418,-440 418,-486 532,-486 532,-440 418,-440"/>
<text text-anchor="middle" x="475" y="-474.8" style="font-family:Arial;font-size:8.00;">VariableDefinition</text>
<polyline style="fill:none;stroke:black;" points="418,-468 532,-468 "/>
<text text-anchor="start" x="426" y="-456.8" style="font-family:Arial;font-size:8.00;">unit : xref(OntologyTerm.id)</text>
<text text-anchor="start" x="426" y="-446.8" style="font-family:Arial;font-size:8.00;">codeList : xref(CodeList.id)</text>
</g>
<!-- CodeList -->
<g id="node21" class="node"><title>CodeList</title>
<polygon style="fill:#decbe4;stroke:black;" points="376,-756 376,-812 472,-812 472,-756 376,-756"/>
<text text-anchor="middle" x="424" y="-800.8" style="font-family:Arial;font-size:8.00;">CodeList</text>
<text text-anchor="middle" x="424" y="-790.8" style="font-family:Arial;font-size:8.00;">implements Identifiable</text>
<text text-anchor="middle" x="424" y="-780.8" style="font-family:Arial;font-size:8.00;">implements Nameable</text>
<polyline style="fill:none;stroke:black;" points="376,-774 472,-774 "/>
<text text-anchor="middle" x="424" y="-762.8" style="font-family:Arial;font-size:8.00;"> </text>
</g>
<!-- Code -->
<g id="node22" class="node"><title>Code</title>
<polygon style="fill:#decbe4;stroke:black;" points="116,-532 116,-608 266,-608 266,-532 116,-532"/>
<text text-anchor="middle" x="191" y="-596.8" style="font-family:Arial;font-size:8.00;">Code</text>
<text text-anchor="middle" x="191" y="-586.8" style="font-family:Arial;font-size:8.00;">implements Identifiable</text>
<polyline style="fill:none;stroke:black;" points="116,-580 266,-580 "/>
<text text-anchor="start" x="124" y="-568.8" style="font-family:Arial;font-size:8.00;">codeList : xref(CodeList.id)</text>
<text text-anchor="start" x="124" y="-558.8" style="font-family:Arial;font-size:8.00;">value : </text>
<text text-anchor="start" x="124" y="-548.8" style="font-family:Arial;font-size:8.00;">label : </text>
<text text-anchor="start" x="124" y="-538.8" style="font-family:Arial;font-size:8.00;">ontologyTerm : xref(OntologyTerm.id)</text>
</g>
<!-- Protocol -->
<g id="node23" class="node"><title>Protocol</title>
<polygon style="fill:#fed9a6;stroke:black;" points="166,-430 166,-496 362,-496 362,-430 166,-430"/>
<text text-anchor="middle" x="264" y="-484.8" style="font-family:Arial;font-size:8.00;">Protocol</text>
<text text-anchor="middle" x="264" y="-474.8" style="font-family:Arial;font-size:8.00;">implements Identifiable</text>
<text text-anchor="middle" x="264" y="-464.8" style="font-family:Arial;font-size:8.00;">implements Nameable</text>
<polyline style="fill:none;stroke:black;" points="166,-458 362,-458 "/>
<text text-anchor="start" x="174" y="-446.8" style="font-family:Arial;font-size:8.00;">observableFeatures : mref(ObservableFeature.id)</text>
<text text-anchor="start" x="174" y="-436.8" style="font-family:Arial;font-size:8.00;">protocolComponents : mref(Protocol.id)</text>
</g>
<!-- ProtocolApplication -->
<g id="node24" class="node"><title>ProtocolApplication</title>
<polygon style="fill:#fed9a6;stroke:black;" points="238,-318 238,-394 380,-394 380,-318 238,-318"/>
<text text-anchor="middle" x="309" y="-382.8" style="font-family:Arial;font-size:8.00;">ProtocolApplication</text>
<text text-anchor="middle" x="309" y="-372.8" style="font-family:Arial;font-size:8.00;">implements Identifiable</text>
<text text-anchor="middle" x="309" y="-362.8" style="font-family:Arial;font-size:8.00;">implements Nameable</text>
<polyline style="fill:none;stroke:black;" points="238,-356 380,-356 "/>
<text text-anchor="start" x="246" y="-344.8" style="font-family:Arial;font-size:8.00;">time : datetime</text>
<text text-anchor="start" x="246" y="-334.8" style="font-family:Arial;font-size:8.00;">protocol : xref(Protocol.id)</text>
<text text-anchor="start" x="246" y="-324.8" style="font-family:Arial;font-size:8.00;">investigation : xref(Investigation.id)</text>
</g>
<!-- ProtocolParameter -->
<g id="node25" class="node"><title>ProtocolParameter</title>
<polygon style="fill:#fed9a6;stroke:black;" points="110,-328 110,-384 221,-384 221,-328 110,-328"/>
<text text-anchor="middle" x="165" y="-372.8" style="font-family:Arial;font-size:8.00;">ProtocolParameter</text>
<text text-anchor="middle" x="165" y="-362.8" style="font-family:Arial;font-size:8.00;">implements Identifiable</text>
<text text-anchor="middle" x="165" y="-352.8" style="font-family:Arial;font-size:8.00;">implements Nameable</text>
<polyline style="fill:none;stroke:black;" points="110,-346 221,-346 "/>
<text text-anchor="start" x="117.5" y="-334.8" style="font-family:Arial;font-size:8.00;">protocol : xref(Protocol.id)</text>
</g>
<!-- ParameterValue -->
<g id="node26" class="node"><title>ParameterValue</title>
<polygon style="fill:#fed9a6;stroke:black;" points="70,-201 70,-267 260,-267 260,-201 70,-201"/>
<text text-anchor="middle" x="165" y="-255.8" style="font-family:Arial;font-size:8.00;">ParameterValue</text>
<text text-anchor="middle" x="165" y="-245.8" style="font-family:Arial;font-size:8.00;">implements Identifiable</text>
<polyline style="fill:none;stroke:black;" points="70,-239 260,-239 "/>
<text text-anchor="start" x="78" y="-227.8" style="font-family:Arial;font-size:8.00;">protocolApplication : xref(ProtocolApplication.id)</text>
<text text-anchor="start" x="78" y="-217.8" style="font-family:Arial;font-size:8.00;">protocolParameter : xref(ProtocolParameter.id)</text>
<text text-anchor="start" x="78" y="-207.8" style="font-family:Arial;font-size:8.00;">value : </text>
</g>
<!-- spook_main -->
<g id="node73" class="node"><title>spook_main</title>
</g>
</g>
</svg>
