<?xml version="1.0" encoding="UTF-8" standalone="no"?>
<!DOCTYPE svg PUBLIC "-//W3C//DTD SVG 1.0//EN"
 "http://www.w3.org/TR/2001/REC-SVG-20010904/DTD/svg10.dtd" [
 <!ATTLIST svg xmlns:xlink CDATA #FIXED "http://www.w3.org/1999/xlink">
]>
<!-- Generated by Graphviz version 2.20.2 (Mon Mar 30 10:11:53 UTC 2009)
     For user: (jvelde)  -->
<!-- Title: G Pages: 1 -->
<svg width="842pt" height="866pt"
 viewBox="0.00 0.00 842.00 866.00" xmlns="http://www.w3.org/2000/svg" xmlns:xlink="http://www.w3.org/1999/xlink">
<g id="graph0" class="graph" transform="scale(1 1) rotate(0) translate(4 862)">
<title>G</title>
<polygon style="fill:white;stroke:white;" points="-4,4 -4,-862 838,-862 838,4 -4,4"/>
<g id="cluster2" class="cluster"><title>cluster_main</title>
<polygon style="fill:white;stroke:black;" points="8,-64 8,-850 826,-850 826,-64 8,-64"/>
</g>
<!-- OntologySource&#45;&gt;Identifiable -->
<g id="edge3" class="edge"><title>OntologySource&#45;&gt;Identifiable</title>
<path style="fill:none;stroke:grey;" d="M272,-770C260,-780 246,-790 233,-800"/>
<polygon style="fill:none;stroke:grey;" points="230.9,-797.2 225,-806 235.1,-802.8 230.9,-797.2"/>
</g>
<!-- OntologySource&#45;&gt;Nameable -->
<g id="edge5" class="edge"><title>OntologySource&#45;&gt;Nameable</title>
<path style="fill:none;stroke:grey;" d="M358,-754C423,-770 540,-798 604,-814"/>
<polygon style="fill:none;stroke:grey;" points="603.508,-817.471 614,-816 604.881,-810.607 603.508,-817.471"/>
</g>
<!-- OntologyTerm&#45;&gt;Identifiable -->
<g id="edge7" class="edge"><title>OntologyTerm&#45;&gt;Identifiable</title>
<path style="fill:none;stroke:grey;" d="M314,-678C286,-714 245,-766 221,-798"/>
<polygon style="fill:none;stroke:grey;" points="218.2,-795.9 215,-806 223.8,-800.1 218.2,-795.9"/>
</g>
<!-- OntologyTerm&#45;&gt;OntologySource -->
<g id="edge51" class="edge"><title>OntologyTerm&#45;&gt;OntologySource</title>
<path style="fill:none;stroke:black;" d="M330,-678C327,-687 324,-696 321,-704"/>
<polygon style="fill:black;stroke:black;" points="318,-714 316.563,-703.129 319.437,-709.211 320.874,-704.422 320.874,-704.422 320.874,-704.422 319.437,-709.211 325.184,-705.715 318,-714 318,-714"/>
<text text-anchor="middle" x="323" y="-682.8" style="font-family:Bitstream Vera Sans;font-size:8.00;">*</text>
</g>
<!-- Investigation&#45;&gt;Identifiable -->
<g id="edge9" class="edge"><title>Investigation&#45;&gt;Identifiable</title>
<path style="fill:none;stroke:grey;" d="M682,-749C577,-765 332,-804 238,-818"/>
<polygon style="fill:none;stroke:grey;" points="237.119,-814.607 228,-820 238.492,-821.471 237.119,-814.607"/>
</g>
<!-- Investigation&#45;&gt;Nameable -->
<g id="edge11" class="edge"><title>Investigation&#45;&gt;Nameable</title>
<path style="fill:none;stroke:grey;" d="M702,-770C693,-779 683,-790 674,-799"/>
<polygon style="fill:none;stroke:grey;" points="671.596,-796.454 667,-806 676.546,-801.404 671.596,-796.454"/>
</g>
<!-- ObservableFeature&#45;&gt;Identifiable -->
<g id="edge13" class="edge"><title>ObservableFeature&#45;&gt;Identifiable</title>
<path style="fill:none;stroke:grey;" d="M353,-556C321,-613 248,-741 216,-797"/>
<polygon style="fill:none;stroke:grey;" points="212.797,-795.559 211,-806 218.916,-798.958 212.797,-795.559"/>
</g>
<!-- ObservableFeature&#45;&gt;Nameable -->
<g id="edge15" class="edge"><title>ObservableFeature&#45;&gt;Nameable</title>
<path style="fill:none;stroke:grey;" d="M396,-556C449,-613 573,-743 625,-798"/>
<polygon style="fill:none;stroke:grey;" points="622.781,-800.779 632,-806 628.049,-796.169 622.781,-800.779"/>
</g>
<!-- ObservableFeature&#45;&gt;OntologyTerm -->
<g id="edge53" class="edge"><title>ObservableFeature&#45;&gt;OntologyTerm</title>
<path style="fill:none;stroke:black;" d="M362,-556C360,-567 357,-580 354,-592"/>
<polygon style="fill:black;stroke:black;" points="352,-602 349.549,-591.312 352.981,-597.097 353.961,-592.194 353.961,-592.194 353.961,-592.194 352.981,-597.097 358.374,-593.077 352,-602 352,-602"/>
<text text-anchor="middle" x="356" y="-561.8" style="font-family:Bitstream Vera Sans;font-size:8.00;">*</text>
</g>
<!-- ObservedValue&#45;&gt;Identifiable -->
<g id="edge17" class="edge"><title>ObservedValue&#45;&gt;Identifiable</title>
<path style="fill:none;stroke:grey;" d="M384,-240C345,-365 241,-698 210,-796"/>
<polygon style="fill:none;stroke:grey;" points="206.521,-795.416 207,-806 213.226,-797.427 206.521,-795.416"/>
</g>
<!-- ObservedValue&#45;&gt;Investigation -->
<g id="edge55" class="edge"><title>ObservedValue&#45;&gt;Investigation</title>
<path style="fill:none;stroke:black;" d="M428,-240C493,-348 650,-608 708,-705"/>
<polygon style="fill:black;stroke:black;" points="713,-714 704.21,-707.444 710.572,-709.629 708.144,-705.258 708.144,-705.258 708.144,-705.258 710.572,-709.629 712.077,-703.073 713,-714 713,-714"/>
<text text-anchor="middle" x="429" y="-247.8" style="font-family:Bitstream Vera Sans;font-size:8.00;">*</text>
</g>
<!-- ObservedValue&#45;&gt;ObservableFeature -->
<g id="edge59" class="edge"><title>ObservedValue&#45;&gt;ObservableFeature</title>
<path style="fill:none;stroke:black;" d="M395,-240C388,-307 378,-428 372,-490"/>
<polygon style="fill:black;stroke:black;" points="371,-500 367.517,-489.602 371.498,-495.025 371.995,-490.05 371.995,-490.05 371.995,-490.05 371.498,-495.025 376.473,-490.497 371,-500 371,-500"/>
<text text-anchor="middle" x="390" y="-246.8" style="font-family:Bitstream Vera Sans;font-size:8.00;">*</text>
</g>
<!-- ObservedValue&#45;&gt;ObservationTarget -->
<g id="edge57" class="edge"><title>ObservedValue&#45;&gt;ObservationTarget</title>
<path style="fill:none;stroke:black;" d="M424,-240C471,-330 569,-521 611,-603"/>
<polygon style="fill:black;stroke:black;" points="616,-612 607.21,-605.444 613.572,-607.629 611.144,-603.258 611.144,-603.258 611.144,-603.258 613.572,-607.629 615.077,-601.073 616,-612 616,-612"/>
<text text-anchor="middle" x="424" y="-247.8" style="font-family:Bitstream Vera Sans;font-size:8.00;">*</text>
</g>
<!-- ObservedValue&#45;&gt;ProtocolApplication -->
<g id="edge61" class="edge"><title>ObservedValue&#45;&gt;ProtocolApplication</title>
<path style="fill:none;stroke:black;" d="M363,-240C356,-249 349,-258 343,-268"/>
<polygon style="fill:black;stroke:black;" points="337,-276 339.4,-265.3 340,-272 343,-268 343,-268 343,-268 340,-272 346.6,-270.7 337,-276 337,-276"/>
<text text-anchor="middle" x="354" y="-242.8" style="font-family:Bitstream Vera Sans;font-size:8.00;">*</text>
</g>
<!-- InferredValue&#45;&gt;ObservedValue -->
<g id="edge43" class="edge"><title>InferredValue&#45;&gt;ObservedValue</title>
<path style="fill:none;stroke:black;" d="M394,-108C393,-115 393,-124 392,-134"/>
<polygon style="fill:none;stroke:black;" points="388.5,-134 392,-144 395.5,-134 388.5,-134"/>
</g>
<!-- InferredValue&#45;&gt;ObservedValue -->
<g id="edge87" class="edge"><title>InferredValue&#45;&gt;ObservedValue</title>
<path style="fill:none;stroke:black;" d="M405,-114C405,-121 406,-130 406,-138"/>
<polygon style="fill:black;stroke:black;" points="404,-108 407.65,-113.474 404.493,-110.959 404.986,-113.918 404.986,-113.918 404.986,-113.918 404.493,-110.959 402.323,-114.362 404,-108 404,-108"/>
<polygon style="fill:black;stroke:black;" points="406,-144 403.3,-138 406,-141 406,-138 406,-138 406,-138 406,-141 408.7,-138 406,-144 406,-144"/>
<text text-anchor="middle" x="401" y="-115.8" style="font-family:Bitstream Vera Sans;font-size:8.00;">*</text>
</g>
<!-- ObservationTarget&#45;&gt;Identifiable -->
<g id="edge19" class="edge"><title>ObservationTarget&#45;&gt;Identifiable</title>
<path style="fill:none;stroke:grey;" d="M582,-661C495,-698 315,-775 237,-808"/>
<polygon style="fill:none;stroke:grey;" points="235.717,-804.74 228,-812 238.56,-811.137 235.717,-804.74"/>
</g>
<!-- ObservationTarget&#45;&gt;Nameable -->
<g id="edge21" class="edge"><title>ObservationTarget&#45;&gt;Nameable</title>
<path style="fill:none;stroke:grey;" d="M633,-668C637,-703 643,-761 646,-796"/>
<polygon style="fill:none;stroke:grey;" points="642.522,-796.398 647,-806 649.488,-795.701 642.522,-796.398"/>
</g>
<!-- Individual&#45;&gt;OntologyTerm -->
<g id="edge63" class="edge"><title>Individual&#45;&gt;OntologyTerm</title>
<path style="fill:none;stroke:black;" d="M512,-559C487,-572 457,-586 429,-599"/>
<polygon style="fill:black;stroke:black;" points="420,-603 427.31,-594.826 424.569,-600.969 429.138,-598.939 429.138,-598.939 429.138,-598.939 424.569,-600.969 430.966,-603.051 420,-603 420,-603"/>
<text text-anchor="middle" x="502" y="-556.8" style="font-family:Bitstream Vera Sans;font-size:8.00;">*</text>
</g>
<!-- Individual&#45;&gt;ObservationTarget -->
<g id="edge45" class="edge"><title>Individual&#45;&gt;ObservationTarget</title>
<path style="fill:none;stroke:black;" d="M593,-561C599,-574 606,-589 612,-603"/>
<polygon style="fill:none;stroke:black;" points="609.084,-604.958 617,-612 615.203,-601.559 609.084,-604.958"/>
</g>
<!-- Individual&#45;&gt;Individual -->
<g id="edge65" class="edge"><title>Individual&#45;&gt;Individual</title>
<path style="fill:none;stroke:black;" d="M642,-519C653,-520 660,-523 660,-528 660,-531 657,-534 652,-535"/>
<polygon style="fill:black;stroke:black;" points="642,-537 650.923,-530.626 646.903,-536.019 651.806,-535.039 651.806,-535.039 651.806,-535.039 646.903,-536.019 652.688,-539.451 642,-537 642,-537"/>
<text text-anchor="middle" x="651" y="-521.8" style="font-family:Bitstream Vera Sans;font-size:8.00;">*</text>
</g>
<!-- Individual&#45;&gt;Individual -->
<g id="edge67" class="edge"><title>Individual&#45;&gt;Individual</title>
<path style="fill:none;stroke:black;" d="M642,-509C662,-509 678,-516 678,-528 678,-538 667,-544 652,-546"/>
<polygon style="fill:black;stroke:black;" points="642,-547 651.503,-541.527 646.975,-546.502 651.95,-546.005 651.95,-546.005 651.95,-546.005 646.975,-546.502 652.398,-550.483 642,-547 642,-547"/>
<text text-anchor="middle" x="651" y="-511.8" style="font-family:Bitstream Vera Sans;font-size:8.00;">*</text>
</g>
<!-- Panel&#45;&gt;ObservationTarget -->
<g id="edge47" class="edge"><title>Panel&#45;&gt;ObservationTarget</title>
<path style="fill:none;stroke:black;" d="M616,-439C619,-475 624,-554 627,-602"/>
<polygon style="fill:none;stroke:black;" points="623.522,-602.398 628,-612 630.488,-601.701 623.522,-602.398"/>
</g>
<!-- Panel&#45;&gt;Individual -->
<g id="edge89" class="edge"><title>Panel&#45;&gt;Individual</title>
<path style="fill:none;stroke:black;" d="M607,-445C603,-457 597,-474 591,-489"/>
<polygon style="fill:black;stroke:black;" points="609,-439 609.664,-445.546 608.051,-441.846 607.103,-444.692 607.103,-444.692 607.103,-444.692 608.051,-441.846 604.541,-443.838 609,-439 609,-439"/>
<polygon style="fill:black;stroke:black;" points="589,-495 588.336,-488.454 589.949,-492.154 590.897,-489.308 590.897,-489.308 590.897,-489.308 589.949,-492.154 593.459,-490.162 589,-495 589,-495"/>
<text text-anchor="middle" x="602" y="-443.8" style="font-family:Bitstream Vera Sans;font-size:8.00;">*</text>
</g>
<!-- VariableDefinition&#45;&gt;OntologyTerm -->
<g id="edge69" class="edge"><title>VariableDefinition&#45;&gt;OntologyTerm</title>
<path style="fill:none;stroke:black;" d="M461,-444C439,-479 398,-547 371,-593"/>
<polygon style="fill:black;stroke:black;" points="366,-602 366.923,-591.073 368.428,-597.629 370.856,-593.258 370.856,-593.258 370.856,-593.258 368.428,-597.629 374.79,-595.444 366,-602 366,-602"/>
<text text-anchor="middle" x="453" y="-446.8" style="font-family:Bitstream Vera Sans;font-size:8.00;">*</text>
</g>
<!-- VariableDefinition&#45;&gt;ObservableFeature -->
<g id="edge49" class="edge"><title>VariableDefinition&#45;&gt;ObservableFeature</title>
<path style="fill:none;stroke:black;" d="M452,-444C438,-459 420,-477 404,-493"/>
<polygon style="fill:none;stroke:black;" points="401.596,-490.454 397,-500 406.546,-495.404 401.596,-490.454"/>
</g>
<!-- VariableDefinition&#45;&gt;CodeList -->
<g id="edge71" class="edge"><title>VariableDefinition&#45;&gt;CodeList</title>
<path style="fill:none;stroke:black;" d="M471,-444C462,-499 441,-636 431,-704"/>
<polygon style="fill:black;stroke:black;" points="429,-714 426.549,-703.312 429.981,-709.097 430.961,-704.194 430.961,-704.194 430.961,-704.194 429.981,-709.097 435.374,-705.077 429,-714 429,-714"/>
<text text-anchor="middle" x="465" y="-449.8" style="font-family:Bitstream Vera Sans;font-size:8.00;">*</text>
</g>
<!-- CodeList&#45;&gt;Identifiable -->
<g id="edge23" class="edge"><title>CodeList&#45;&gt;Identifiable</title>
<path style="fill:none;stroke:grey;" d="M376,-760C335,-775 276,-797 238,-811"/>
<polygon style="fill:none;stroke:grey;" points="236.573,-807.774 228,-814 238.584,-814.479 236.573,-807.774"/>
</g>
<!-- CodeList&#45;&gt;Nameable -->
<g id="edge25" class="edge"><title>CodeList&#45;&gt;Nameable</title>
<path style="fill:none;stroke:grey;" d="M472,-760C511,-774 566,-794 604,-808"/>
<polygon style="fill:none;stroke:grey;" points="603.416,-811.479 614,-811 605.427,-804.774 603.416,-811.479"/>
</g>
<!-- Code&#45;&gt;Identifiable -->
<g id="edge27" class="edge"><title>Code&#45;&gt;Identifiable</title>
<path style="fill:none;stroke:grey;" d="M192,-566C194,-626 198,-742 200,-796"/>
<polygon style="fill:none;stroke:grey;" points="196.5,-796 200,-806 203.5,-796 196.5,-796"/>
</g>
<!-- Code&#45;&gt;OntologyTerm -->
<g id="edge75" class="edge"><title>Code&#45;&gt;OntologyTerm</title>
<path style="fill:none;stroke:black;" d="M243,-566C256,-576 270,-586 283,-596"/>
<polygon style="fill:black;stroke:black;" points="291,-602 280.3,-599.6 287,-599 283,-596 283,-596 283,-596 287,-599 285.7,-592.4 291,-602 291,-602"/>
<text text-anchor="middle" x="248" y="-572.8" style="font-family:Bitstream Vera Sans;font-size:8.00;">*</text>
</g>
<!-- Code&#45;&gt;CodeList -->
<g id="edge73" class="edge"><title>Code&#45;&gt;CodeList</title>
<path style="fill:none;stroke:black;" d="M232,-566C275,-606 343,-668 385,-707"/>
<polygon style="fill:black;stroke:black;" points="393,-714 382.511,-710.802 389.237,-710.707 385.474,-707.415 385.474,-707.415 385.474,-707.415 389.237,-710.707 388.437,-704.028 393,-714 393,-714"/>
<text text-anchor="middle" x="236" y="-572.8" style="font-family:Bitstream Vera Sans;font-size:8.00;">*</text>
</g>
<!-- Protocol&#45;&gt;Identifiable -->
<g id="edge29" class="edge"><title>Protocol&#45;&gt;Identifiable</title>
<path style="fill:none;stroke:grey;" d="M259,-454C247,-532 217,-723 206,-796"/>
<polygon style="fill:none;stroke:grey;" points="202.529,-795.508 204,-806 209.393,-796.881 202.529,-795.508"/>
</g>
<!-- Protocol&#45;&gt;Nameable -->
<g id="edge31" class="edge"><title>Protocol&#45;&gt;Nameable</title>
<path style="fill:none;stroke:grey;" d="M296,-454C371,-533 557,-728 625,-798"/>
<polygon style="fill:none;stroke:grey;" points="622.781,-800.779 632,-806 628.049,-796.169 622.781,-800.779"/>
</g>
<!-- Protocol&#45;&gt;ObservableFeature -->
<g id="edge91" class="edge"><title>Protocol&#45;&gt;ObservableFeature</title>
<path style="fill:none;stroke:black;" d="M301,-459C313,-471 325,-484 337,-496"/>
<polygon style="fill:black;stroke:black;" points="297,-454 302.857,-456.999 298.874,-456.343 300.748,-458.685 300.748,-458.685 300.748,-458.685 298.874,-456.343 298.64,-460.372 297,-454 297,-454"/>
<polygon style="fill:black;stroke:black;" points="341,-500 334.848,-497.667 338.879,-497.879 336.757,-495.757 336.757,-495.757 336.757,-495.757 338.879,-497.879 338.667,-493.848 341,-500 341,-500"/>
<text text-anchor="middle" x="299" y="-461.8" style="font-family:Bitstream Vera Sans;font-size:8.00;">*</text>
</g>
<!-- Protocol&#45;&gt;Protocol -->
<g id="edge93" class="edge"><title>Protocol&#45;&gt;Protocol</title>
<path style="fill:none;stroke:black;" d="M368,-407C375,-410 380,-414 380,-421 380,-427 375,-432 368,-435"/>
<polygon style="fill:black;stroke:black;" points="362,-405 368.546,-404.336 364.846,-405.949 367.692,-406.897 367.692,-406.897 367.692,-406.897 364.846,-405.949 366.838,-409.459 362,-405 362,-405"/>
<polygon style="fill:black;stroke:black;" points="362,-437 366.838,-432.541 364.846,-436.051 367.692,-435.103 367.692,-435.103 367.692,-435.103 364.846,-436.051 368.546,-437.664 362,-437 362,-437"/>
<text text-anchor="middle" x="369" y="-409.8" style="font-family:Bitstream Vera Sans;font-size:8.00;">*</text>
</g>
<!-- ProtocolApplication&#45;&gt;Identifiable -->
<g id="edge33" class="edge"><title>ProtocolApplication&#45;&gt;Identifiable</title>
<path style="fill:none;stroke:grey;" d="M301,-352C280,-451 226,-710 207,-796"/>
<polygon style="fill:none;stroke:grey;" points="203.529,-795.508 205,-806 210.393,-796.881 203.529,-795.508"/>
</g>
<!-- ProtocolApplication&#45;&gt;Nameable -->
<g id="edge35" class="edge"><title>ProtocolApplication&#45;&gt;Nameable</title>
<path style="fill:none;stroke:grey;" d="M335,-352C401,-451 575,-713 631,-797"/>
<polygon style="fill:none;stroke:grey;" points="628.541,-799.621 637,-806 634.365,-795.738 628.541,-799.621"/>
</g>
<!-- ProtocolApplication&#45;&gt;Investigation -->
<g id="edge79" class="edge"><title>ProtocolApplication&#45;&gt;Investigation</title>
<path style="fill:none;stroke:black;" d="M347,-352C427,-434 617,-626 695,-707"/>
<polygon style="fill:black;stroke:black;" points="702,-714 691.747,-710.111 698.464,-710.464 694.929,-706.929 694.929,-706.929 694.929,-706.929 698.464,-710.464 698.111,-703.747 702,-714 702,-714"/>
<text text-anchor="middle" x="350" y="-358.8" style="font-family:Bitstream Vera Sans;font-size:8.00;">*</text>
</g>
<!-- ProtocolApplication&#45;&gt;Protocol -->
<g id="edge77" class="edge"><title>ProtocolApplication&#45;&gt;Protocol</title>
<path style="fill:none;stroke:black;" d="M293,-352C289,-361 286,-370 282,-379"/>
<polygon style="fill:black;stroke:black;" points="278,-388 277.949,-377.034 280.031,-383.431 282.061,-378.862 282.061,-378.862 282.061,-378.862 280.031,-383.431 286.174,-380.69 278,-388 278,-388"/>
<text text-anchor="middle" x="286" y="-356.8" style="font-family:Bitstream Vera Sans;font-size:8.00;">*</text>
</g>
<!-- ProtocolParameter&#45;&gt;Identifiable -->
<g id="edge37" class="edge"><title>ProtocolParameter&#45;&gt;Identifiable</title>
<path style="fill:none;stroke:grey;" d="M167,-342C174,-431 192,-707 199,-796"/>
<polygon style="fill:none;stroke:grey;" points="195.522,-796.398 200,-806 202.488,-795.701 195.522,-796.398"/>
</g>
<!-- ProtocolParameter&#45;&gt;Nameable -->
<g id="edge39" class="edge"><title>ProtocolParameter&#45;&gt;Nameable</title>
<path style="fill:none;stroke:grey;" d="M192,-342C277,-432 543,-712 625,-799"/>
<polygon style="fill:none;stroke:grey;" points="622.454,-801.404 632,-806 627.404,-796.454 622.454,-801.404"/>
</g>
<!-- ProtocolParameter&#45;&gt;Protocol -->
<g id="edge81" class="edge"><title>ProtocolParameter&#45;&gt;Protocol</title>
<path style="fill:none;stroke:black;" d="M191,-342C202,-354 215,-368 226,-380"/>
<polygon style="fill:black;stroke:black;" points="233,-388 223.028,-383.437 229.707,-384.237 226.415,-380.474 226.415,-380.474 226.415,-380.474 229.707,-384.237 229.802,-377.511 233,-388 233,-388"/>
<text text-anchor="middle" x="194" y="-349.8" style="font-family:Bitstream Vera Sans;font-size:8.00;">*</text>
</g>
<!-- ParameterValue&#45;&gt;Identifiable -->
<g id="edge41" class="edge"><title>ParameterValue&#45;&gt;Identifiable</title>
<path style="fill:none;stroke:grey;" d="M167,-225C173,-336 193,-693 199,-796"/>
<polygon style="fill:none;stroke:grey;" points="195.522,-796.398 200,-806 202.488,-795.701 195.522,-796.398"/>
</g>
<!-- ParameterValue&#45;&gt;ProtocolApplication -->
<g id="edge83" class="edge"><title>ParameterValue&#45;&gt;ProtocolApplication</title>
<path style="fill:none;stroke:black;" d="M204,-225C220,-239 239,-255 256,-269"/>
<polygon style="fill:black;stroke:black;" points="264,-276 253.511,-272.802 260.237,-272.707 256.474,-269.415 256.474,-269.415 256.474,-269.415 260.237,-272.707 259.437,-266.028 264,-276 264,-276"/>
<text text-anchor="middle" x="208" y="-231.8" style="font-family:Bitstream Vera Sans;font-size:8.00;">*</text>
</g>
<!-- ParameterValue&#45;&gt;ProtocolParameter -->
<g id="edge85" class="edge"><title>ParameterValue&#45;&gt;ProtocolParameter</title>
<path style="fill:none;stroke:black;" d="M165,-225C165,-241 165,-260 165,-276"/>
<polygon style="fill:black;stroke:black;" points="165,-286 160.5,-276 165,-281 165,-276 165,-276 165,-276 165,-281 169.5,-276 165,-286 165,-286"/>
<text text-anchor="middle" x="161" y="-231.8" style="font-family:Bitstream Vera Sans;font-size:8.00;">*</text>
</g>
<!-- spook_legend&#45;&gt;spook_main -->
<!-- Identifiable -->
<g id="node2" class="node"><title>Identifiable</title>
<polygon style="fill:#fbb4ae;stroke:black;" points="174,-806 174,-842 228,-842 228,-806 174,-806"/>
<text text-anchor="middle" x="201" y="-830.8" style="font-family:Arial;font-size:8.00;">Identifiable</text>
<polyline style="fill:none;stroke:black;" points="174,-824 228,-824 "/>
<text text-anchor="start" x="182" y="-812.8" style="font-family:Arial;font-size:8.00;">id : int</text>
</g>
<!-- Nameable -->
<g id="node3" class="node"><title>Nameable</title>
<polygon style="fill:#fbb4ae;stroke:black;" points="614,-806 614,-842 685,-842 685,-806 614,-806"/>
<text text-anchor="middle" x="649" y="-830.8" style="font-family:Arial;font-size:8.00;">Nameable</text>
<polyline style="fill:none;stroke:black;" points="614,-824 685,-824 "/>
<text text-anchor="start" x="621.5" y="-812.8" style="font-family:Arial;font-size:8.00;">name : varchar</text>
</g>
<!-- OntologySource -->
<g id="node4" class="node"><title>OntologySource</title>
<polygon style="fill:#fbb4ae;stroke:black;" points="260,-714 260,-770 358,-770 358,-714 260,-714"/>
<text text-anchor="middle" x="309" y="-758.8" style="font-family:Arial;font-size:8.00;">OntologySource</text>
<text text-anchor="middle" x="309" y="-748.8" style="font-family:Arial;font-size:8.00;">implements Identifiable</text>
<text text-anchor="middle" x="309" y="-738.8" style="font-family:Arial;font-size:8.00;">implements Nameable</text>
<polyline style="fill:none;stroke:black;" points="260,-732 358,-732 "/>
<text text-anchor="start" x="268" y="-720.8" style="font-family:Arial;font-size:8.00;">ontologyURI : hyperlink</text>
</g>
<!-- OntologyTerm -->
<g id="node5" class="node"><title>OntologyTerm</title>
<polygon style="fill:#fbb4ae;stroke:black;" points="267,-602 267,-678 420,-678 420,-602 267,-602"/>
<text text-anchor="middle" x="343" y="-666.8" style="font-family:Arial;font-size:8.00;">OntologyTerm</text>
<text text-anchor="middle" x="343" y="-656.8" style="font-family:Arial;font-size:8.00;">implements Identifiable</text>
<polyline style="fill:none;stroke:black;" points="267,-650 420,-650 "/>
<text text-anchor="start" x="274.5" y="-638.8" style="font-family:Arial;font-size:8.00;">term : varchar</text>
<text text-anchor="start" x="274.5" y="-628.8" style="font-family:Arial;font-size:8.00;">termLabel : string</text>
<text text-anchor="start" x="274.5" y="-618.8" style="font-family:Arial;font-size:8.00;">termSource : xref(OntologySource.id)</text>
<text text-anchor="start" x="274.5" y="-608.8" style="font-family:Arial;font-size:8.00;">termAccession : varchar</text>
</g>
<!-- Investigation -->
<g id="node6" class="node"><title>Investigation</title>
<polygon style="fill:#b3cde3;stroke:black;" points="682,-714 682,-770 778,-770 778,-714 682,-714"/>
<text text-anchor="middle" x="730" y="-758.8" style="font-family:Arial;font-size:8.00;">Investigation</text>
<text text-anchor="middle" x="730" y="-748.8" style="font-family:Arial;font-size:8.00;">implements Identifiable</text>
<text text-anchor="middle" x="730" y="-738.8" style="font-family:Arial;font-size:8.00;">implements Nameable</text>
<polyline style="fill:none;stroke:black;" points="682,-732 778,-732 "/>
<text text-anchor="middle" x="730" y="-720.8" style="font-family:Arial;font-size:8.00;"> </text>
</g>
<!-- ObservableFeature -->
<g id="node7" class="node"><title>ObservableFeature</title>
<polygon style="fill:#b3cde3;stroke:black;" points="284,-500 284,-556 455,-556 455,-500 284,-500"/>
<text text-anchor="middle" x="369" y="-544.8" style="font-family:Arial;font-size:8.00;">ObservableFeature</text>
<text text-anchor="middle" x="369" y="-534.8" style="font-family:Arial;font-size:8.00;">implements Identifiable</text>
<text text-anchor="middle" x="369" y="-524.8" style="font-family:Arial;font-size:8.00;">implements Nameable</text>
<polyline style="fill:none;stroke:black;" points="284,-518 455,-518 "/>
<text text-anchor="start" x="291.5" y="-506.8" style="font-family:Arial;font-size:8.00;">ontologyReference : xref(OntologyTerm.id)</text>
</g>
<!-- ObservedValue -->
<g id="node8" class="node"><title>ObservedValue</title>
<polygon style="fill:#b3cde3;stroke:black;" points="304,-144 304,-240 494,-240 494,-144 304,-144"/>
<text text-anchor="middle" x="399" y="-228.8" style="font-family:Arial;font-size:8.00;">ObservedValue</text>
<text text-anchor="middle" x="399" y="-218.8" style="font-family:Arial;font-size:8.00;">implements Identifiable</text>
<polyline style="fill:none;stroke:black;" points="304,-212 494,-212 "/>
<text text-anchor="start" x="312" y="-200.8" style="font-family:Arial;font-size:8.00;">investigation : xref(Investigation.id)</text>
<text text-anchor="start" x="312" y="-190.8" style="font-family:Arial;font-size:8.00;">time : datetime</text>
<text text-anchor="start" x="312" y="-180.8" style="font-family:Arial;font-size:8.00;">observationTarget : xref(ObservationTarget.id)</text>
<text text-anchor="start" x="312" y="-170.8" style="font-family:Arial;font-size:8.00;">observableFeature : xref(ObservableFeature.id)</text>
<text text-anchor="start" x="312" y="-160.8" style="font-family:Arial;font-size:8.00;">value : </text>
<text text-anchor="start" x="312" y="-150.8" style="font-family:Arial;font-size:8.00;">protocolApplication : xref(ProtocolApplication.id)</text>
</g>
<!-- InferredValue -->
<g id="node9" class="node"><title>InferredValue</title>
<polygon style="fill:#b3cde3;stroke:black;" points="322,-72 322,-108 477,-108 477,-72 322,-72"/>
<text text-anchor="middle" x="399" y="-96.8" style="font-family:Arial;font-size:8.00;">InferredValue</text>
<polyline style="fill:none;stroke:black;" points="322,-90 477,-90 "/>
<text text-anchor="start" x="329.5" y="-78.8" style="font-family:Arial;font-size:8.00;">derivedFrom : mref(ObservedValue.id)</text>
</g>
<!-- ObservationTarget -->
<g id="node10" class="node"><title>ObservationTarget</title>
<polygon style="fill:#b3cde3;stroke:black;" points="582,-612 582,-668 678,-668 678,-612 582,-612"/>
<text text-anchor="middle" x="630" y="-656.8" style="font-family:Arial;font-size:8.00;">ObservationTarget</text>
<text text-anchor="middle" x="630" y="-646.8" style="font-family:Arial;font-size:8.00;">implements Identifiable</text>
<text text-anchor="middle" x="630" y="-636.8" style="font-family:Arial;font-size:8.00;">implements Nameable</text>
<polyline style="fill:none;stroke:black;" points="582,-630 678,-630 "/>
<text text-anchor="middle" x="630" y="-618.8" style="font-family:Arial;font-size:8.00;"> </text>
</g>
<!-- Individual -->
<g id="node11" class="node"><title>Individual</title>
<polygon style="fill:#ccebc5;stroke:black;" points="512,-495 512,-561 642,-561 642,-495 512,-495"/>
<text text-anchor="middle" x="577" y="-549.8" style="font-family:Arial;font-size:8.00;">Individual</text>
<polyline style="fill:none;stroke:black;" points="512,-543 642,-543 "/>
<text text-anchor="start" x="520" y="-531.8" style="font-family:Arial;font-size:8.00;">species : xref(OntologyTerm.id)</text>
<text text-anchor="start" x="520" y="-521.8" style="font-family:Arial;font-size:8.00;">sex : enum</text>
<text text-anchor="start" x="520" y="-511.8" style="font-family:Arial;font-size:8.00;">mother : xref(Individual.id)</text>
<text text-anchor="start" x="520" y="-501.8" style="font-family:Arial;font-size:8.00;">father : xref(Individual.id)</text>
</g>
<!-- Panel -->
<g id="node12" class="node"><title>Panel</title>
<polygon style="fill:#ccebc5;stroke:black;" points="553,-403 553,-439 677,-439 677,-403 553,-403"/>
<text text-anchor="middle" x="615" y="-427.8" style="font-family:Arial;font-size:8.00;">Panel</text>
<polyline style="fill:none;stroke:black;" points="553,-421 677,-421 "/>
<text text-anchor="start" x="561" y="-409.8" style="font-family:Arial;font-size:8.00;">individuals : mref(Individual.id)</text>
</g>
<!-- VariableDefinition -->
<g id="node13" class="node"><title>VariableDefinition</title>
<polygon style="fill:#decbe4;stroke:black;" points="418,-398 418,-444 532,-444 532,-398 418,-398"/>
<text text-anchor="middle" x="475" y="-432.8" style="font-family:Arial;font-size:8.00;">VariableDefinition</text>
<polyline style="fill:none;stroke:black;" points="418,-426 532,-426 "/>
<text text-anchor="start" x="426" y="-414.8" style="font-family:Arial;font-size:8.00;">unit : xref(OntologyTerm.id)</text>
<text text-anchor="start" x="426" y="-404.8" style="font-family:Arial;font-size:8.00;">codeList : xref(CodeList.id)</text>
</g>
<!-- CodeList -->
<g id="node14" class="node"><title>CodeList</title>
<polygon style="fill:#decbe4;stroke:black;" points="376,-714 376,-770 472,-770 472,-714 376,-714"/>
<text text-anchor="middle" x="424" y="-758.8" style="font-family:Arial;font-size:8.00;">CodeList</text>
<text text-anchor="middle" x="424" y="-748.8" style="font-family:Arial;font-size:8.00;">implements Identifiable</text>
<text text-anchor="middle" x="424" y="-738.8" style="font-family:Arial;font-size:8.00;">implements Nameable</text>
<polyline style="fill:none;stroke:black;" points="376,-732 472,-732 "/>
<text text-anchor="middle" x="424" y="-720.8" style="font-family:Arial;font-size:8.00;"> </text>
</g>
<!-- Code -->
<g id="node15" class="node"><title>Code</title>
<polygon style="fill:#decbe4;stroke:black;" points="116,-490 116,-566 266,-566 266,-490 116,-490"/>
<text text-anchor="middle" x="191" y="-554.8" style="font-family:Arial;font-size:8.00;">Code</text>
<text text-anchor="middle" x="191" y="-544.8" style="font-family:Arial;font-size:8.00;">implements Identifiable</text>
<polyline style="fill:none;stroke:black;" points="116,-538 266,-538 "/>
<text text-anchor="start" x="124" y="-526.8" style="font-family:Arial;font-size:8.00;">codeList : xref(CodeList.id)</text>
<text text-anchor="start" x="124" y="-516.8" style="font-family:Arial;font-size:8.00;">value : </text>
<text text-anchor="start" x="124" y="-506.8" style="font-family:Arial;font-size:8.00;">label : </text>
<text text-anchor="start" x="124" y="-496.8" style="font-family:Arial;font-size:8.00;">ontologyTerm : xref(OntologyTerm.id)</text>
</g>
<!-- Protocol -->
<g id="node16" class="node"><title>Protocol</title>
<polygon style="fill:#fed9a6;stroke:black;" points="166,-388 166,-454 362,-454 362,-388 166,-388"/>
<text text-anchor="middle" x="264" y="-442.8" style="font-family:Arial;font-size:8.00;">Protocol</text>
<text text-anchor="middle" x="264" y="-432.8" style="font-family:Arial;font-size:8.00;">implements Identifiable</text>
<text text-anchor="middle" x="264" y="-422.8" style="font-family:Arial;font-size:8.00;">implements Nameable</text>
<polyline style="fill:none;stroke:black;" points="166,-416 362,-416 "/>
<text text-anchor="start" x="174" y="-404.8" style="font-family:Arial;font-size:8.00;">observableFeatures : mref(ObservableFeature.id)</text>
<text text-anchor="start" x="174" y="-394.8" style="font-family:Arial;font-size:8.00;">protocolComponents : mref(Protocol.id)</text>
</g>
<!-- ProtocolApplication -->
<g id="node17" class="node"><title>ProtocolApplication</title>
<polygon style="fill:#fed9a6;stroke:black;" points="238,-276 238,-352 380,-352 380,-276 238,-276"/>
<text text-anchor="middle" x="309" y="-340.8" style="font-family:Arial;font-size:8.00;">ProtocolApplication</text>
<text text-anchor="middle" x="309" y="-330.8" style="font-family:Arial;font-size:8.00;">implements Identifiable</text>
<text text-anchor="middle" x="309" y="-320.8" style="font-family:Arial;font-size:8.00;">implements Nameable</text>
<polyline style="fill:none;stroke:black;" points="238,-314 380,-314 "/>
<text text-anchor="start" x="246" y="-302.8" style="font-family:Arial;font-size:8.00;">time : datetime</text>
<text text-anchor="start" x="246" y="-292.8" style="font-family:Arial;font-size:8.00;">protocol : xref(Protocol.id)</text>
<text text-anchor="start" x="246" y="-282.8" style="font-family:Arial;font-size:8.00;">investigation : xref(Investigation.id)</text>
</g>
<!-- ProtocolParameter -->
<g id="node18" class="node"><title>ProtocolParameter</title>
<polygon style="fill:#fed9a6;stroke:black;" points="110,-286 110,-342 221,-342 221,-286 110,-286"/>
<text text-anchor="middle" x="165" y="-330.8" style="font-family:Arial;font-size:8.00;">ProtocolParameter</text>
<text text-anchor="middle" x="165" y="-320.8" style="font-family:Arial;font-size:8.00;">implements Identifiable</text>
<text text-anchor="middle" x="165" y="-310.8" style="font-family:Arial;font-size:8.00;">implements Nameable</text>
<polyline style="fill:none;stroke:black;" points="110,-304 221,-304 "/>
<text text-anchor="start" x="117.5" y="-292.8" style="font-family:Arial;font-size:8.00;">protocol : xref(Protocol.id)</text>
</g>
<!-- ParameterValue -->
<g id="node19" class="node"><title>ParameterValue</title>
<polygon style="fill:#fed9a6;stroke:black;" points="70,-159 70,-225 260,-225 260,-159 70,-159"/>
<text text-anchor="middle" x="165" y="-213.8" style="font-family:Arial;font-size:8.00;">ParameterValue</text>
<text text-anchor="middle" x="165" y="-203.8" style="font-family:Arial;font-size:8.00;">implements Identifiable</text>
<polyline style="fill:none;stroke:black;" points="70,-197 260,-197 "/>
<text text-anchor="start" x="78" y="-185.8" style="font-family:Arial;font-size:8.00;">protocolApplication : xref(ProtocolApplication.id)</text>
<text text-anchor="start" x="78" y="-175.8" style="font-family:Arial;font-size:8.00;">protocolParameter : xref(ProtocolParameter.id)</text>
<text text-anchor="start" x="78" y="-165.8" style="font-family:Arial;font-size:8.00;">value : </text>
</g>
<!-- spook_main -->
<g id="node66" class="node"><title>spook_main</title>
</g>
<!-- spook_legend -->
<g id="node67" class="node"><title>spook_legend</title>
<polygon style="fill:white;stroke:#808080;" points="129,-0 129,-36 195,-36 195,-0 129,-0"/>
<text text-anchor="middle" x="162" y="-24.8" style="font-family:Arial;font-size:8.00;">spook_legend</text>
</g>
</g>
</svg>
